<svg viewBox="0 0 242.1 124" height="50">
 <g id="Layer_1">
  <title>Layer 1</title>
  <path d="m97.68121,32.81903c-0.19194,0 -0.19194,0.09597 -0.38388,0.09597c-0.09596,0 -0.19193,0 -0.38387,0c-0.09597,0 -0.19194,0 -0.38388,0c-0.19193,0 -0.2879,0 -0.38387,0c-0.19194,0 -0.28791,0 -0.38388,0c-0.19193,0 -0.2879,0 -0.47984,0c-0.09597,0 -0.28791,0 -0.38388,0c-0.09597,0 -0.2879,0 -0.38387,0c-0.19194,0 -0.271,0.04667 -0.47985,0.09597c-0.0934,0.02205 -0.19193,0 -0.38387,0c-0.09597,0 -0.28791,0 -0.38388,0c-0.09597,0 -0.2879,0 -0.38387,0c-0.19194,0 -0.28791,0 -0.47985,0c-0.09597,0 -0.19193,0 -0.38387,0c-0.09597,0 -0.28791,0 -0.38388,0c-0.19194,0 -0.2879,0 -0.38387,0c-0.19194,0 -0.28791,0 -0.47985,0c-0.09597,0 -0.2879,0 -0.38387,0c-0.09597,0 -0.28791,0 -0.47985,0c-0.19193,0 -0.38387,0 -0.47984,0c-0.09597,0 -0.28791,0 -0.38388,0c-0.09597,0 -0.2879,0 -0.47984,0c-0.09597,0 -0.19194,0 -0.38388,0c-0.09596,0 -0.38387,0.19194 -0.57581,0.19194c-0.19194,0 -0.38531,-0.02345 -0.57581,0c-0.39273,0.04835 -0.57582,0.09597 -0.86372,0.09597c-0.28791,0 -0.47985,0.19194 -0.86372,0.19194c-0.19194,0 -0.36697,0.04667 -0.57581,0.09597c-0.18681,0.0441 -0.38388,0 -0.47985,0c-0.09597,0 -0.09597,0.19194 -0.28791,0.19194c-0.19193,0 -0.12407,0.02811 -0.19193,0.09597c-0.13572,0.13572 -0.41199,-0.06786 -0.47985,0c-0.06786,0.06786 -0.15218,-0.03975 -0.2879,0.09597c-0.13572,0.13572 -0.09597,0.28791 -0.19194,0.28791c-0.19194,0 -0.47985,0.09597 -0.57582,0.09597c-0.19193,0 -0.20132,0.07912 -0.38387,0.19194c-0.32655,0.20182 -0.59772,0.08176 -0.86372,0.19194c-0.12539,0.05194 -0.47984,0.09597 -0.57581,0.09597c-0.28791,0 -0.38388,0.09597 -0.67179,0.09597c-0.09596,0 -0.2879,0 -0.38387,0c-0.19194,0 -0.20133,0.07912 -0.38388,0.19194c-0.16327,0.10091 -0.2879,0 -0.47984,0c-0.09597,0 -0.3876,0.04985 -0.67178,0.09597c-0.29957,0.04861 -0.45221,0.19018 -0.95969,0.28791c-0.28271,0.05445 -0.48605,0.11507 -0.95969,0.19194c-0.29957,0.04861 -0.47099,0.14359 -0.86372,0.19194c-0.381,0.0469 -0.43658,0.09167 -0.76775,0.19194c-0.18371,0.05562 -0.36697,0.04667 -0.57581,0.09597c-0.0934,0.02205 -0.19194,0.09597 -0.38388,0.09597c-0.09597,0 -0.12408,0.12408 -0.19194,0.19194c-0.13572,0.13572 -0.19193,0.19194 -0.38387,0.19194c0,0 -0.1331,0.08806 -0.38388,0.19194c-0.08867,0.03672 -0.19193,0 -0.57581,0.19194c0,0 -0.50959,0.03239 -0.76775,0.19194c-0.2309,0.1427 -0.57581,0.38388 -0.67178,0.38388c-0.09597,0 -0.22907,0.08806 -0.47985,0.19194c-0.17732,0.07345 -0.19193,0.19194 -0.38387,0.19194c-0.09597,0 -0.17503,0.04667 -0.38388,0.09597c-0.18681,0.0441 -0.13309,0.18403 -0.38387,0.28791c-0.17733,0.07346 -0.28791,0.19194 -0.57582,0.19194c-0.19193,0 -0.27233,-0.11154 -0.57581,0.19194c-0.15174,0.15174 -0.18028,0.23929 -0.47984,0.28791c-0.09473,0.01537 -0.271,0.04667 -0.47985,0.09597c-0.0934,0.02205 -0.12408,0.12408 -0.19194,0.19194c-0.13572,0.13572 -0.19193,0.19194 -0.2879,0.19194c-0.09597,0 -0.15219,0.05622 -0.28791,0.19194c-0.13572,0.13572 -0.19194,0.19194 -0.28791,0.19194c-0.09596,0 -0.15218,-0.03975 -0.2879,0.09597c-0.06786,0.06786 0.03975,0.15219 -0.09597,0.28791c-0.06786,0.06786 -0.29522,0.15521 -0.38388,0.19194c-0.25077,0.10387 -0.2879,0.38388 -0.47984,0.38388c-0.09597,0 -0.12408,0.02811 -0.19194,0.09597c-0.06786,0.06786 -0.19924,0.25118 -0.28791,0.28791c-0.25078,0.10387 -0.26142,0.21331 -0.57582,0.57582c-0.08892,0.10253 -0.38388,0.19194 -0.67178,0.47984c-0.09597,0.09597 -0.38388,0.28791 -0.67178,0.47985c-0.28791,0.19194 -0.40173,0.35437 -0.57582,0.47985c-0.1101,0.07936 -0.20133,0.36703 -0.38388,0.47985c-0.16327,0.10091 -0.31602,0.12408 -0.38388,0.19194c-0.13572,0.13572 -0.16252,0.23597 -0.28791,0.28791c-0.17733,0.07345 -0.08433,0.1803 -0.28791,0.38388c-0.13572,0.13572 -0.31602,0.12408 -0.38388,0.19194c-0.06786,0.06786 -0.19194,0.09597 -0.19194,0.28791c0,0.09597 -0.09597,0.09597 -0.19194,0.19194c-0.19194,0.19194 -0.43054,0.271 -0.47985,0.47985c-0.02205,0.0934 -0.03713,0.37597 -0.28791,0.47985c-0.08867,0.03673 -0.12408,0.12408 -0.19194,0.19194c-0.06786,0.06786 -0.05622,0.15219 -0.19194,0.28791c-0.06786,0.06786 -0.16989,0.09854 -0.19194,0.19194c-0.0493,0.20885 -0.09103,0.31658 -0.19194,0.47985c-0.11282,0.18254 -0.33194,0.25849 -0.38388,0.38388c-0.03673,0.08867 -0.27106,0.20134 -0.38388,0.38388c-0.10091,0.16327 -0.05622,0.15219 -0.19194,0.28791c-0.13572,0.13572 -0.19194,0.19194 -0.19194,0.28791c0,0.09597 -0.09597,0.28791 -0.19194,0.38388c-0.19194,0.19194 -0.40372,0.46187 -0.57582,0.67179c-0.21937,0.26759 -0.38387,0.57581 -0.57581,0.76775c-0.19194,0.19194 -0.43371,0.43745 -0.67179,0.76775c-0.12548,0.17408 -0.34412,0.24815 -0.47985,0.38388c-0.13572,0.13572 -0.12408,0.31602 -0.19194,0.38388c-0.13572,0.13572 -0.20627,0.14149 -0.28791,0.19194c-0.18254,0.11282 -0.18403,0.13309 -0.28791,0.38388c-0.07345,0.17733 -0.19194,0.28791 -0.19194,0.38388c0,0.19194 -0.19194,0.19194 -0.38388,0.38388c0,0 -0.09597,0.19194 -0.09597,0.38388c0,0.09597 -0.05925,0.10328 -0.09597,0.19194c-0.10387,0.25078 -0.19194,0.38388 -0.28791,0.38388c0,0 0.13572,0.24816 0,0.38388c-0.06786,0.06786 -0.02811,0.12408 -0.09597,0.19194c-0.13572,0.13572 -0.38388,0.38388 -0.38388,0.38388c-0.09597,0.19194 -0.19194,0.38388 -0.38388,0.57582c-0.19194,0.19194 -0.19194,0.38388 -0.38388,0.57581c-0.19194,0.19194 -0.31602,0.22005 -0.38388,0.28791c-0.06786,0.06786 -0.19194,0.09597 -0.19194,0.28791c0,0.09597 -0.02811,0.12408 -0.09597,0.19194c-0.13572,0.13572 -0.02811,0.31602 -0.09597,0.38388c-0.06786,0.06786 -0.09103,0.2206 -0.19194,0.38388c-0.11282,0.18254 -0.14784,0.19707 -0.19194,0.38388c-0.0493,0.20885 -0.14263,0.36696 -0.19194,0.57581c-0.02205,0.0934 -0.19194,0.19194 -0.19194,0.38388c0,0.28791 -0.14263,0.36696 -0.19194,0.57581c-0.0441,0.18681 -0.16989,0.38644 -0.19194,0.47985c-0.0493,0.20885 -0.02811,0.50796 -0.09597,0.57582c-0.13572,0.13572 -0.2393,0.08431 -0.28791,0.38388c-0.03075,0.18946 -0.19194,0.19194 -0.19194,0.28791c0,0.19194 0.06786,0.31602 0,0.38388c-0.06786,0.06786 -0.07392,0.19451 -0.09597,0.28791c-0.0493,0.20885 -0.17509,0.20134 -0.28791,0.38388c-0.10091,0.16327 -0.02811,0.50795 -0.09597,0.57581c-0.13572,0.13572 -0.19194,0.28791 -0.19194,0.38388c0,0.19194 -0.02811,0.22005 -0.09597,0.28791c-0.13572,0.13572 -0.05622,0.15218 -0.19194,0.2879c-0.13572,0.13572 -0.09597,0.28791 -0.09597,0.38388c0,0.19194 -0.1893,0.35005 -0.28791,0.76775c-0.02205,0.0934 -0.06816,0.388 -0.09597,0.47984c-0.10027,0.33118 -0.17773,0.59773 -0.28791,0.86372c-0.05194,0.12539 -0.09597,0.19194 -0.09597,0.38388c0,0.19194 -0.19194,0.19194 -0.19194,0.28791c0,0.09597 0,0.2879 0,0.38387c0,0.09597 -0.09597,0.28791 -0.09597,0.47985c0,0.19193 -0.16989,0.48241 -0.19194,0.57581c-0.0493,0.20885 -0.09597,0.38387 -0.09597,0.57581c0,0.19194 0,0.28791 0,0.38388c0,0.19194 0,0.38387 0,0.38387c0,0.19194 0,0.38388 0,0.47985c0,0.09597 0,0.2879 0,0.47984c0,0 0,0.19194 0,0.38388c0,0.09597 0,0.19193 0,0.38387c0,0.19194 0,0.19194 0,0.38388c0,0.19194 0,0.2879 0,0.38387c0,0.19194 0,0.28791 0,0.38388c0,0.19194 0,0.38387 0,0.47984c0,0.09597 0,0.28791 0,0.38388c0,0.28791 0.02781,0.48396 0,0.57581c-0.10027,0.33118 -0.22005,0.31602 -0.28791,0.38388c-0.20358,0.20358 -0.04667,0.36696 -0.09597,0.57581c-0.02205,0.0934 0,0.28791 0,0.38388c0,0.09596 -0.19194,0.09596 -0.19194,0.2879c0,0.09597 0.02205,0.29048 0,0.38388c-0.0493,0.20885 -0.09597,0.2879 -0.09597,0.38387c0,0.19194 0,0.28791 0,0.47985c0,0.09597 0,0.2879 0,0.38387c0,0.09597 0.19194,0.09597 0.19194,0.28791c0,0.09597 0.09597,0.28791 0.09597,0.38387c0,0.09597 0,0.28791 0,0.38388c0,0.19194 -0.13572,0.34412 0,0.47984c0.13572,0.13572 0.19194,0.09597 0.19194,0.19194c0,0.19194 0,0.28791 0,0.47985c0,0.09597 0,0.2879 0,0.47984c0,0.19194 0,0.28791 0,0.57581c0,0.19194 0.09597,0.28791 0.09597,0.57582c0,0.09597 0,0.19193 0,0.38387c0,0.19194 0,0.28791 0,0.38388c0,0.19194 0.04552,0.20628 0.09597,0.2879c0.11282,0.18255 0.28791,0.28791 0.28791,0.47985c0,0 0.19194,0 0.19194,0.19194c0,0.19193 0,0.2879 0,0.38387c0,0.19194 0,0.38388 0,0.38388c0,0.19193 0,0.38387 0,0.47984c0,0.09597 0.04667,0.271 0.09597,0.47985c0.0441,0.1868 0,0.38387 0,0.47984c0,0.28791 0.08806,0.421 0.19194,0.67178c0.11018,0.26599 0,0.57581 0,0.76775c0,0 0,0.19194 0,0.38388c0,0.09597 0,0.19194 0,0.38387c0,0.19194 0.02811,0.12408 0.09597,0.19194c0.13572,0.13572 -0.06786,0.41199 0,0.47985c0.06786,0.06786 0.15219,-0.03976 0.28791,0.09596c0.13572,0.13572 0.08183,0.20855 0.19194,0.28791c0.17409,0.12547 0.19194,0.28792 0.38388,0.47985c0.09597,0.09596 0.14264,0.17502 0.19194,0.38387c0.02205,0.0934 0.12408,0.12408 0.19194,0.19194c0.06786,0.06786 0.02252,0.20655 0.09597,0.38387c0.05194,0.12539 -0.03975,0.24816 0.09597,0.38388c0.13572,0.13572 0.27106,0.00939 0.38388,0.19194c0.10091,0.16327 0.04667,0.27099 0.09597,0.47984c0.02205,0.0934 -0.06786,0.31602 0,0.38388c0.06786,0.06786 0.09597,0.09597 0.09597,0.38387c0,0.19194 0.15521,0.48716 0.19194,0.57582c0.05194,0.12538 0.14333,0.27625 0.19194,0.57581c0.01537,0.09473 0.15521,0.10328 0.19194,0.19194c0.10388,0.25078 0.05622,0.34412 0.19194,0.47984c0.13572,0.13572 0.24815,-0.03975 0.38388,0.09597c0.13572,0.13572 0.02811,0.31602 0.09597,0.38387c0.06786,0.06786 0.1011,0.14784 0.28791,0.19194c0.20885,0.0493 0.19194,0.28791 0.19194,0.38388c0,0.19194 0.02271,0.19733 0.19194,0.2879c0.30508,0.16328 0.28791,0.38388 0.28791,0.47985c0,0.19194 -0.03975,0.24815 0.09597,0.38387c0.13572,0.13572 0.38388,0 0.38388,0.09597c0,0 0.15522,0.0073 0.19194,0.09597c0.10387,0.25078 0.16989,0.29048 0.19194,0.38388c0.0493,0.20885 0.14149,0.39821 0.19194,0.47984c0.11282,0.18254 0.27106,0.20133 0.38388,0.38388c0.15136,0.2449 -0.00632,0.49369 0.19194,0.57581c0.28038,0.11614 0.27377,0.30453 0.38388,0.38388c0.17409,0.12547 0.38388,0.09596 0.38388,0.09596c0,0.19194 0.05621,0.24816 0.19194,0.38388c0.13572,0.13572 0.22005,-0.06786 0.28791,0c0.13572,0.13572 0.15219,0.05622 0.28791,0.19194c0.13572,0.13572 0.19194,0.19193 0.19194,0.19193c0.19194,0 0.24816,-0.03975 0.38388,0.09597c0.06786,0.06786 0.09597,0.28791 0.19194,0.28791c0.19194,0 0.28791,0.19194 0.28791,0.19194c0.09597,0 0.31657,0.09103 0.47985,0.19194c0.18254,0.11282 0.17503,0.2386 0.38388,0.2879c0.0934,0.02205 0.19194,0 0.38388,0c0.19194,0 0.28791,0.09597 0.38388,0.09597c0.19194,0 0.33091,0.04058 0.57582,0.19194c0.18254,0.11282 0.28791,0.19194 0.57582,0.19194c0.09597,0 0.1331,0.08806 0.38388,0.19193c0.08866,0.03672 0.15218,0.05622 0.28791,0.19194c0.06786,0.06786 0.09597,0.09597 0.28791,0.09597c0.09597,0 0.12408,0.02811 0.19194,0.09597c0.13572,0.13572 0.22906,0.08807 0.47985,0.19194c0.08866,0.03673 0.13309,0.08807 0.38388,0.19194c0.26599,0.11018 0.28297,0.2206 0.38388,0.38387c0.11282,0.18254 0.20627,0.14149 0.28791,0.19194c0.18254,0.11282 0.09597,0.38387 0.28791,0.38387c0.09597,0 0.09597,0.19194 0.28791,0.19194c0.09597,0 0.15218,0.05622 0.28791,0.19194c0.06786,0.06786 0.24816,-0.13572 0.38388,0c0.06786,0.06786 0.07906,0.14264 0.28791,0.19194c0.0934,0.02205 0.30224,-0.05045 0.38388,0c0.18254,0.11282 0.28791,0.19193 0.38388,0.19193c0.09597,0 0.28791,0 0.47984,0c0.09597,0 0.19194,0.09597 0.38388,0.09597c0.09597,0 0.17502,0.04667 0.38388,0.09597c0.18681,0.0441 0.15218,0.05622 0.2879,0.19194c0.06786,0.06786 0.15219,0.05622 0.28791,0.19194c0.06786,0.06786 0.38388,0 0.57581,0c0,0 0.19194,0.09597 0.38388,0.09597c0.09597,0 0.19194,0 0.38388,0c0.19193,0 0.17502,0.04667 0.38387,0.09597c0.18681,0.0441 0.28791,0 0.38388,0c0.38387,0 0.35004,0.09333 0.76775,0.19193c0.09341,0.02205 0.19193,0 0.38387,0c0.19194,0 0.38388,0 0.57582,0c0.09596,0 0.36696,0.04667 0.57581,0.09597c0.18681,0.0441 0.47984,0 0.76775,0c0.09597,0 0.09597,0.09597 0.19194,0.09597c0.38387,0 0.47984,0 0.57581,0c0.28791,0 0.38388,0 0.57581,0c0.19194,0 0.38388,0 0.67179,0c0.2879,0 0.47984,0 0.86372,0c0.19194,0 0.47985,0 0.95969,0c0.57582,0 0.95969,-0.09597 1.34357,-0.09597c0.2879,0 0.76775,0 1.15163,0c0.19194,0 0.57582,0 0.57582,0c0.19193,0 0.38387,0 0.47984,0c0.09597,0 0.28791,0 0.38388,0c0.09597,0 0.15218,-0.05622 0.2879,-0.19194c0.13572,-0.13572 0.24464,-0.09167 0.57582,-0.19193c0.09184,-0.02781 0.09596,0 0.19193,0c0.19194,0 0.39822,0.05045 0.47985,0c0.18255,-0.11282 0.2879,-0.19194 0.38387,-0.19194c0.28791,0 0.47985,-0.19194 0.57582,-0.19194c0.2879,0 0.37222,-0.04736 0.67178,-0.09597c0.09473,-0.01537 0.44251,0.10287 0.67178,-0.09597c0.16212,-0.14059 0.38388,-0.19193 0.57581,-0.19193c0.09597,0 0.28791,-0.19194 0.38388,-0.19194c0.09597,0 0.28791,0 0.38387,0c0.19194,0 0.29522,-0.15521 0.38388,-0.19194c0.25079,-0.10387 0.30252,-0.11849 0.47984,-0.19194c0.12539,-0.05194 0.271,-0.14264 0.47985,-0.19194c0.18681,-0.0441 0.52284,-0.04057 0.76775,-0.19193c0.18255,-0.11282 0.38387,-0.19194 0.57581,-0.19194c0.19194,0 0.39822,-0.14149 0.47985,-0.19194c0.18255,-0.11282 0.31601,-0.12408 0.38387,-0.19194c0.06786,-0.06786 0.30252,-0.02251 0.47985,-0.09596c0.12539,-0.05194 0.28,-0.03712 0.38387,-0.28791c0.07346,-0.17733 0.09597,-0.19194 0.19194,-0.19194c0.19194,0 0.38388,0 0.38388,0c0,0 0.19193,0 0.38387,0c0.09597,0 0.12408,-0.12408 0.19194,-0.19194c0.13572,-0.13572 0.12408,-0.22004 0.19194,-0.2879c0.13572,-0.13572 0.19193,-0.09597 0.19193,-0.09597c0,-0.19194 0.27106,-0.10536 0.38388,-0.28791c0.05045,-0.08163 -0.03975,-0.34412 0.09597,-0.47984c0.06786,-0.06786 0.36702,-0.00939 0.47984,-0.19194c0.10091,-0.16328 0,-0.19194 0,-0.28791c0,-0.09597 0.19194,-0.2879 0.19194,-0.47984c0,-0.09597 0.23861,-0.17503 0.28791,-0.38388c0.02205,-0.0934 0.09597,-0.19193 0.09597,-0.38387c0,-0.09597 0,-0.28791 0,-0.38388c0,-0.19194 0,-0.2879 0,-0.38387c0,-0.19194 0,-0.28791 0,-0.47985c0,-0.09597 0,-0.2879 0,-0.38387c0,-0.09597 0.02205,-0.29048 0,-0.38388c-0.0493,-0.20885 -0.09597,-0.28791 -0.28791,-0.28791c-0.19194,0 -0.28791,0 -0.38388,0c-0.19193,0 -0.2879,0 -0.38387,0c-0.19194,0 -0.41199,0.06786 -0.47985,0c-0.13572,-0.13572 -0.09597,-0.19193 -0.2879,-0.19193c-0.09597,0 -0.19194,0 -0.38388,0c-0.19194,0 -0.2879,0 -0.38387,0c-0.19194,0 -0.28791,0 -0.38388,0c-0.19194,0 -0.19194,0.09597 -0.28791,0.09597c-0.19193,0 -0.19193,0.19193 -0.2879,0.19193c-0.19194,0 -0.28791,0.09597 -0.38388,0.09597c-0.19194,0 -0.22005,0.02811 -0.2879,0.09597c-0.13572,0.13572 -0.22005,0.12408 -0.28791,0.19194c-0.06786,0.06786 -0.12408,0.12408 -0.19194,0.19194c-0.06786,0.06786 -0.13309,0.28 -0.38387,0.38387c-0.08866,0.03673 -0.25849,0.14 -0.38388,0.19194c-0.08866,0.03673 -0.15219,0.05622 -0.28791,0.19194c-0.06786,0.06786 -0.15218,0.05622 -0.2879,0.19194c-0.13572,0.13572 -0.15219,0.05621 -0.28791,0.19193c-0.13572,0.13572 -0.08184,0.20855 -0.19194,0.28791c-0.17408,0.12547 -0.22906,0.18404 -0.47984,0.28791c-0.08866,0.03673 -0.29522,-0.03673 -0.38388,0c-0.12539,0.05194 -0.2879,0.09597 -0.38387,0.09597c-0.09597,0 -0.271,0.04666 -0.47985,0.09596c-0.09341,0.02205 -0.19193,0.19194 -0.38387,0.19194c-0.09597,0 -0.24816,-0.13572 -0.38388,0c-0.13572,0.13572 -0.19193,0.19194 -0.2879,0.19194c-0.09597,0 -0.28791,0 -0.38388,0c-0.09597,0 -0.47984,0 -0.47984,0c-0.19194,0 -0.24816,0.05622 -0.38388,0.19194c-0.06786,0.06786 -0.1331,0.08806 -0.38387,0.19193c-0.17733,0.07346 -0.19194,0 -0.38388,0c-0.19194,0 -0.19194,0.09597 -0.28791,0.09597c-0.09597,0 -0.2879,0 -0.47984,0c0,0 -0.19194,0.09597 -0.38388,0.09597c-0.09596,0 -0.19193,0 -0.38387,0c-0.19194,0 -0.19194,0.19194 -0.19194,0.19194c-0.19194,0 -0.24815,0.05622 -0.38387,0.19194c-0.06786,0.06786 -0.19194,0 -0.38388,0c-0.19194,0 -0.19194,0 -0.38388,0c-0.19193,0 -0.2879,0 -0.38387,0c-0.19194,0 -0.38388,0 -0.38388,0c-0.19193,0 -0.38387,0 -0.47984,0c-0.28791,0 -0.2973,0.07912 -0.47984,0.19194c-0.32655,0.20182 -0.47985,0 -0.57582,0c-0.2879,0 -0.38387,0 -0.57581,0c-0.19194,0 -0.28791,0 -0.38388,0c-0.19193,0 -0.38387,0 -0.57581,0c-0.09597,0 -0.28791,0 -0.38387,0c-0.19194,0 -0.28791,0 -0.38388,0c-0.19194,0 -0.28791,0 -0.47984,0c-0.09597,0 -0.28791,0 -0.38388,0c-0.09597,0 -0.28791,0 -0.38388,0c-0.19193,0 -0.2879,0 -0.38387,0c-0.19194,0 -0.28791,0 -0.47984,0c-0.09597,0 -0.28791,0 -0.38388,0c-0.09597,0 -0.09597,-0.09597 -0.28791,-0.09597c-0.09597,0 -0.25848,-0.04403 -0.38387,-0.09597c-0.17733,-0.07346 -0.31602,0.06786 -0.38388,0c-0.06786,-0.06786 -0.19924,-0.05925 -0.2879,-0.09597c-0.25079,-0.10387 -0.30252,-0.11848 -0.47985,-0.19194c-0.12539,-0.05194 -0.19194,-0.09597 -0.38387,-0.09597c-0.09597,0 -0.12408,-0.02811 -0.19194,-0.09597c-0.13572,-0.13572 -0.41199,0.06786 -0.47985,0c-0.13572,-0.13572 -0.09596,-0.19193 -0.2879,-0.19193c-0.09597,0 -0.09597,-0.19194 -0.19194,-0.19194c-0.19194,0 -0.38388,-0.09597 -0.47984,-0.09597c-0.09597,0 -0.22005,-0.02811 -0.28791,-0.09597c-0.06786,-0.06786 -0.24816,0.13572 -0.38388,0c-0.13572,-0.13572 -0.12407,-0.22005 -0.19193,-0.28791c-0.13572,-0.13572 -0.19194,-0.09596 -0.38388,-0.09596c-0.09597,0 -0.24815,-0.05622 -0.38388,-0.19194c-0.06786,-0.06786 -0.05622,-0.15219 -0.19194,-0.28791c-0.13572,-0.13572 -0.31602,-0.02811 -0.38388,-0.09597c-0.06786,-0.06786 -0.05621,-0.05622 -0.19194,-0.19194c-0.13572,-0.13572 -0.19194,-0.09596 -0.38388,-0.09596c0,0 -0.11243,0.17547 -0.38388,-0.09597c-0.13572,-0.13572 -0.07392,-0.19451 -0.09597,-0.28791c-0.0493,-0.20885 -0.34412,-0.15219 -0.47985,-0.28791c-0.13572,-0.13572 0,-0.19193 0,-0.2879c0,-0.09597 -0.05622,-0.15219 -0.19194,-0.28791c-0.13572,-0.13572 -0.29047,0.02205 -0.38388,0c-0.20885,-0.0493 -0.24815,-0.15219 -0.38388,-0.28791c-0.06786,-0.06786 -0.05622,-0.15218 -0.19194,-0.2879c-0.06786,-0.06786 -0.12408,-0.12408 -0.19194,-0.19194c-0.06786,-0.06786 -0.09597,-0.19194 -0.19194,-0.19194c-0.19194,0 -0.20627,-0.04552 -0.28791,-0.09597c-0.18254,-0.11282 -0.27099,-0.2386 -0.47984,-0.2879c-0.0934,-0.02205 -0.12408,-0.02811 -0.19194,-0.09597c-0.13572,-0.13572 -0.22005,-0.12408 -0.28791,-0.19194c-0.06786,-0.06786 0.03975,-0.15219 -0.09597,-0.28791c-0.13572,-0.13572 -0.41199,-0.02811 -0.47985,-0.09597c-0.13572,-0.13572 -0.02811,-0.22004 -0.09597,-0.2879c-0.13572,-0.13572 -0.05621,-0.15219 -0.19194,-0.28791c-0.06786,-0.06786 -0.12408,-0.02811 -0.19194,-0.09597c-0.13572,-0.13572 -0.12408,-0.22005 -0.19194,-0.2879c-0.13572,-0.13572 -0.19925,-0.15521 -0.28791,-0.19194c-0.12539,-0.05194 -0.15218,-0.05622 -0.28791,-0.19194c-0.13572,-0.13572 -0.02811,-0.22005 -0.09597,-0.28791c-0.06786,-0.06786 -0.15218,0.03976 -0.28791,-0.09596c-0.13572,-0.13572 -0.09597,-0.19194 -0.09597,-0.38388c0,-0.09597 0,-0.19195 -0.19194,-0.38388c-0.09597,-0.09596 -0.18403,-0.13309 -0.28791,-0.38387c-0.07345,-0.17733 -0.09597,-0.28791 -0.09597,-0.38388c0,-0.19193 -0.09597,-0.2879 -0.09597,-0.38387c0,-0.19194 0,-0.38388 0,-0.38388c-0.19194,0 -0.05622,-0.24815 -0.19194,-0.38387c-0.06786,-0.06786 -0.02811,-0.12408 -0.09597,-0.19194c-0.13572,-0.13572 -0.05621,-0.24816 -0.19194,-0.38388c-0.06786,-0.06786 -0.09597,0 -0.09597,-0.19193c0,-0.19194 -0.23597,-0.16252 -0.28791,-0.28791c-0.03673,-0.08866 -0.09597,-0.09597 -0.09597,-0.28791c0,-0.19193 -0.19194,-0.19193 -0.19194,-0.19193c0,-0.19194 -0.17509,-0.2973 -0.28791,-0.47985c-0.05045,-0.08163 0.03975,-0.15219 -0.09597,-0.28791c-0.06786,-0.06786 -0.09597,-0.19193 -0.09597,-0.19193c0,-0.19194 0.06786,-0.41199 0,-0.47985c-0.13572,-0.13572 -0.14784,-0.1011 -0.19194,-0.2879c-0.0493,-0.20885 -0.09597,-0.19194 -0.09597,-0.38388c0,-0.19194 -0.19194,-0.19194 -0.19194,-0.28791c0,-0.09596 -0.02811,-0.22004 -0.09597,-0.2879c-0.13572,-0.13572 0,-0.19194 0,-0.38388c0,-0.19194 -0.05622,-0.15218 -0.19194,-0.2879c-0.06786,-0.06786 0,-0.28791 0,-0.38388c0,-0.09597 -0.04667,-0.271 -0.09597,-0.47984c-0.0441,-0.18681 -0.04403,-0.35446 -0.09597,-0.47985c-0.03673,-0.08866 -0.07912,-0.39326 -0.19194,-0.57581c-0.05045,-0.08163 -0.09597,-0.28791 -0.09597,-0.38388c0,-0.09597 0,-0.2879 0,-0.38387c0,-0.19194 0,-0.28791 0,-0.47985c0,-0.09597 0,-0.19193 0,-0.38387c0,-0.09597 0,-0.28791 0,-0.38388c0,0 0,-0.19194 0,-0.2879c0,-0.09597 -0.06786,-0.31602 0,-0.38388c0.13572,-0.13572 0.19194,-0.19194 0.19194,-0.28791c0,-0.09596 0,-0.2879 0,-0.38387c0,-0.19194 0,-0.28791 0,-0.47985c0,-0.09596 0,-0.19193 0,-0.38387c0,-0.09597 0.09597,-0.28791 0.09597,-0.38388c0,-0.19193 0,-0.2879 0,-0.38387c0,-0.19194 0,-0.28791 0,-0.38388c0,-0.19193 0.07912,-0.29729 0.19194,-0.47984c0.05045,-0.08163 0,-0.28791 0,-0.38388c0,-0.09597 0.02811,-0.22005 0.09597,-0.2879c0.13572,-0.13572 -0.13572,-0.4401 0,-0.57582c0.06786,-0.06786 0.09597,-0.09597 0.09597,-0.19193c0,-0.19194 -0.06786,-0.41199 0,-0.47985c0.13572,-0.13572 0.11848,-0.11058 0.19194,-0.28791c0.05194,-0.12538 0.15218,-0.05621 0.28791,-0.19193c0.13572,-0.13572 0.02811,-0.31602 0.09597,-0.38388c0.13572,-0.13572 0,-0.38387 0,-0.47984c0,-0.09597 0.19194,-0.09597 0.19194,-0.28791c0,-0.19194 -0.13572,-0.24815 0,-0.38387c0.06786,-0.06786 0.09597,-0.19194 0.09597,-0.28791c0,-0.09597 0.09597,-0.09597 0.09597,-0.28791c0,-0.19194 0,-0.19194 0,-0.38387c0,-0.19194 0.19194,-0.28791 0.19194,-0.38388c0,-0.19194 0,-0.38387 0,-0.38387c0,-0.19194 0,-0.38388 0,-0.47985c0,-0.09597 0.02811,-0.22004 0.09597,-0.2879c0.13572,-0.13572 0,-0.19194 0,-0.38388c0,-0.19194 0.09597,-0.19194 0.09597,-0.28791c0,-0.09597 0.19194,-0.2879 0.19194,-0.38387c0,-0.09597 0.19194,-0.28791 0.19194,-0.47985c0,-0.09597 0.02252,-0.20654 0.09597,-0.38387c0.05194,-0.12539 0.09597,-0.19194 0.09597,-0.38388c0,-0.19193 0.19194,-0.2879 0.19194,-0.38387c0,-0.19194 0.02811,-0.22005 0.09597,-0.28791c0.06786,-0.06786 0,-0.28791 0,-0.38387c0,-0.19194 0.09597,-0.19194 0.09597,-0.47985c0,-0.09597 0.19194,-0.38387 0.19194,-0.47984c0,-0.19194 0.19194,-0.28791 0.19194,-0.47985c0,-0.09597 0.09597,-0.09597 0.09597,-0.19194c0,-0.19193 0.02811,-0.22004 0.09597,-0.2879c0.13572,-0.13572 0,-0.28791 0,-0.47985c0,-0.09596 0.05622,-0.05621 0.19194,-0.19193c0.13572,-0.13572 -0.13572,-0.34413 0,-0.47985c0.06786,-0.06786 0.02811,-0.12408 0.09597,-0.19194c0.06786,-0.06786 0.02811,-0.22004 0.09597,-0.2879c0.13572,-0.13572 0.19194,-0.19194 0.19194,-0.28791c0,-0.19194 -0.06786,-0.31602 0,-0.38388c0.13572,-0.13572 0.19194,-0.19194 0.19194,-0.28791c0,0 0.07912,-0.10536 0.19194,-0.28791c0.10091,-0.16327 0.07912,-0.20134 0.19194,-0.38388c0.10091,-0.16327 0.01661,-0.27377 0.09597,-0.38388c0.12548,-0.17409 0.17509,-0.2973 0.28791,-0.47984c0.05046,-0.08164 0.08806,-0.22907 0.19194,-0.47985c0.07345,-0.17733 0,-0.19194 0,-0.38388c0,-0.09597 0.05622,-0.05622 0.19194,-0.19194c0.13572,-0.13572 0.19194,-0.19194 0.19194,-0.28791c0,-0.09597 0.02811,-0.22005 0.09597,-0.28791c0.13572,-0.13572 -0.03975,-0.24815 0.09597,-0.38388c0.13572,-0.13572 0.24815,-0.05621 0.38388,-0.19194c0.06786,-0.06786 -0.03673,-0.10328 0,-0.19194c0.10387,-0.25078 0.24815,-0.24815 0.38388,-0.38388c0.06786,-0.06786 0.00939,-0.27106 0.19194,-0.38388c0.16327,-0.10091 0.12408,-0.12408 0.19194,-0.19194c0.13572,-0.13572 0.19194,-0.19194 0.19194,-0.19194c0,-0.19194 0.19194,-0.19194 0.19194,-0.19194c0,-0.19194 0.22005,-0.31602 0.28791,-0.38388c0.06786,-0.06786 0.09597,-0.19194 0.09597,-0.38388c0,-0.19194 0.05622,-0.24815 0.19194,-0.38388c0.13572,-0.13572 0.19194,-0.19194 0.19194,-0.19194c0,-0.09597 0.08806,-0.1331 0.19194,-0.38388c0.07345,-0.17733 0.19194,-0.19194 0.19194,-0.38388c0,-0.19194 0.05924,-0.19925 0.09597,-0.28791c0.05194,-0.12539 -0.03975,-0.34412 0.09597,-0.47985c0.13572,-0.13572 0.05622,-0.05622 0.19194,-0.19194c0.13572,-0.13572 0.19194,-0.19194 0.19194,-0.28791c0,-0.09597 0,-0.09597 0,-0.28791c0,-0.09597 0.05621,-0.24815 0.19194,-0.38388c0.13572,-0.13572 0.19194,-0.19194 0.19194,-0.38388c0,-0.19194 0.09597,-0.28791 0.09597,-0.38388c0,-0.19194 -0.06786,-0.41199 0,-0.47985c0.06786,-0.06786 0.09597,-0.09597 0.09597,-0.28791c0,-0.09597 0.05622,-0.05622 0.19194,-0.19194c0.13572,-0.13572 0,-0.47985 0,-0.57581c0,-0.19194 -0.02205,-0.29048 0,-0.38388c0.0493,-0.20885 0.09597,-0.28791 0.09597,-0.47985c0,-0.09597 0.02811,-0.22005 0.09597,-0.28791c0.06786,-0.06786 0,-0.19194 0,-0.38388c0,-0.09597 0.19194,-0.09597 0.19194,-0.28791c0,-0.09597 0.19194,-0.19194 0.19194,-0.38388c0,-0.09597 0.14263,-0.07906 0.19194,-0.28791c0.02205,-0.0934 0.15521,-0.29522 0.19194,-0.38388c0.05194,-0.12539 0.16367,-0.4171 0.38388,-0.57581c0.17409,-0.12548 0.23597,-0.25848 0.28791,-0.38388c0.03673,-0.08867 0.15218,-0.15219 0.2879,-0.28791c0.06786,-0.06786 0.09597,-0.09597 0.09597,-0.28791c0,-0.09597 0.07906,-0.33457 0.28791,-0.38388c0.0934,-0.02205 0.23213,-0.13617 0.38387,-0.28791c0.15174,-0.15174 0.25849,-0.14 0.38388,-0.19194c0.17733,-0.07345 0.34412,0.13572 0.47984,0c0.13572,-0.13572 0.03712,-0.28 0.28791,-0.38388c0.17733,-0.07345 0.38511,-0.0806 0.47984,-0.09597c0.29957,-0.04861 0.36095,-0.13588 0.67179,-0.28791c0.27262,-0.13334 0.52976,-0.223 0.67178,-0.38388c0.229,-0.2594 0.47984,-0.19194 0.57581,-0.19194c0.19194,0 0.19194,-0.09597 0.28791,-0.09597c0.09597,0 0.12463,0.00494 0.2879,-0.09597c0.18255,-0.11282 0.28791,-0.28791 0.38388,-0.28791c0.19194,0 0.31602,-0.02811 0.38387,-0.09597c0.13572,-0.13572 0.19194,-0.38388 0.28791,-0.38388c0,0 0.15219,0.13572 0.28791,0c0.13572,-0.13572 0.05622,-0.24816 0.19194,-0.38388c0.06786,-0.06786 0.12407,-0.02811 0.19193,-0.09597c0.06786,-0.06786 0.23861,-0.07906 0.28791,-0.28791c0.0441,-0.18681 0.02811,-0.12408 0.09597,-0.19194c0.13572,-0.13572 0.05622,-0.24816 0.19194,-0.38388c0.13572,-0.13572 0.26585,-0.09854 0.2879,-0.19194c0.0493,-0.20885 0.15219,-0.24815 0.28791,-0.38388c0.06786,-0.06786 0.05622,-0.05622 0.19194,-0.19194c0.13572,-0.13572 0.19193,-0.19194 0.38387,-0.19194c0,0 0,-0.09597 0.19194,-0.09597c0.19194,0 0.20628,-0.04551 0.28791,-0.09597c0.18255,-0.11282 0.22906,-0.28 0.47984,-0.38388c0.17733,-0.07345 0.48526,0.03176 0.57581,0c0.57986,-0.2034 0.91212,-0.34491 1.34357,-0.57582c0.23933,-0.12808 0.49268,-0.27363 0.95969,-0.38388c0.4177,-0.09861 0.72449,-0.28361 1.05566,-0.38388c0.27556,-0.08343 0.46294,-0.04667 0.67179,-0.09597c0.1868,-0.0441 0.19193,-0.09597 0.38387,-0.09597c0.19194,0 0.28791,0 0.38388,0c0.19193,0 0.38387,0 0.38387,0c0.19194,0 0.38388,0 0.47985,0c0.09597,0 0.47984,0 0.47984,0c0.19194,0 0.47985,0 0.57581,0c0.19194,0 0.38388,0 0.38388,0c0.19194,0 0.38387,0 0.47984,0c0.09597,0 0.34413,-0.03975 0.47985,0.09597c0.13572,0.13572 0.19194,0.19194 0.47984,0.19194c0.09597,0 0.28791,0 0.47985,0c0,0 0.24815,-0.13572 0.38387,0c0.13572,0.13572 0.19194,0.19194 0.38388,0.19194c0.19194,0 0.38387,0 0.67178,0c0.28791,0 0.47099,0.04762 0.86372,0.09597c0.19051,0.02345 0.46819,0.04736 0.76775,0.09597c0.09473,0.01537 0.33091,-0.15136 0.57581,0c0.18254,0.11282 0.17503,0.2386 0.38388,0.28791c0.0934,0.02205 0.25849,0.04403 0.38387,0.09597c0.17733,0.07346 0.28791,0 0.38388,0c0.28791,0 0.47984,0 0.57581,0c0.09597,0 0.38388,0 0.57582,0c0.09596,0 0.38387,0 0.47984,0c0.19194,0 0.28791,0 0.57581,0c0.19194,0 0.28791,0 0.38388,0c0.2879,0 0.47984,0 0.57581,0c0.28791,0 0.38388,0 0.57581,0c0.19194,0 0.57582,0 0.76776,0c0.19193,0 0.2879,0 0.38387,0c0.19194,0 0.38388,0 0.47985,0c0.09596,0 0.2879,0 0.38387,0c0.09597,0 0.28791,0 0.47984,0c0.19194,0 0.38388,0 0.47985,0c0.28791,0 0.47984,-0.09597 0.47984,-0.09597c0.19194,0 0.38388,0 0.47985,0c0.09597,0 0.22906,-0.08806 0.47984,-0.19194c0.17733,-0.07345 0.41199,0.06786 0.47985,0c0.13572,-0.13572 -0.00494,-0.2206 0.09596,-0.38388c0.22564,-0.36509 0.31602,-0.31602 0.38388,-0.38388c0.13572,-0.13572 0.24816,-0.05621 0.38388,-0.19194c0.13572,-0.13572 0.12407,-0.12408 0.19193,-0.19194c0.13572,-0.13572 0.27106,-0.2973 0.38388,-0.47985c0.05045,-0.08163 -0.13572,-0.15218 0,-0.28791c0.13572,-0.13572 0.19194,-0.19194 0.19194,-0.19194c0,-0.19194 0.05621,-0.24815 0.19193,-0.38388c0.06786,-0.06786 0.09597,-0.09597 0.09597,-0.19194c0,-0.19194 0.09597,-0.38388 0.09597,-0.38388c0,-0.19194 0.07912,-0.2973 0.19194,-0.47985c0.05045,-0.08164 0,-0.28791 0,-0.47985c0,0 0.09597,0 0.09597,-0.19194c0,-0.19194 0.09597,-0.28791 0.09597,-0.38388c0,-0.19194 0.07912,-0.20133 0.19194,-0.38388c0.10091,-0.16327 0.06786,-0.41198 0,-0.47984c-0.06786,-0.06786 -0.12408,-0.02811 -0.19194,-0.09597c-0.13572,-0.13572 0.06786,-0.31602 0,-0.38388c-0.06786,-0.06786 -0.15219,-0.05622 -0.28791,-0.19194c-0.13572,-0.13572 -0.05622,-0.15218 -0.19194,-0.28791c-0.06786,-0.06786 0.13572,-0.15219 0,-0.28791c-0.13572,-0.13572 -0.41198,-0.02811 -0.47984,-0.09597c-0.06786,-0.06786 -0.02811,-0.22005 -0.09597,-0.28791c-0.06786,-0.06786 -0.24816,0.03976 -0.38388,-0.09597c-0.13572,-0.13572 0.06786,-0.22005 0,-0.28791c-0.13572,-0.13572 -0.12407,-0.22005 -0.19193,-0.28791c-0.13572,-0.13572 -0.28791,0 -0.38388,0l0,-0.09597l0,-0.19194" id="svg_3" stroke="#000" fill="none"/>
  <path d="m111.59676,35.02633c0,0 -0.06786,-0.12408 0,-0.19194c0.06786,-0.06786 0.00939,-0.17509 0.19194,-0.28791c0.16328,-0.10091 0.28791,-0.09597 0.47985,-0.28791c0.09597,-0.09597 0.25839,-0.11382 0.38387,-0.28791c0.07936,-0.1101 0.30452,-0.08183 0.38388,-0.19194c0.12547,-0.17409 0.3281,-0.13617 0.47984,-0.28791c0.15174,-0.15174 0.12408,-0.22005 0.19194,-0.28791c0.13572,-0.13572 0.28791,0 0.38387,0c0.19194,0 0.38388,0 0.47985,0c0.09597,0 0.28791,0 0.38387,0c0.09597,0 0.28791,0 0.47985,0c0,0 0.19194,0 0.38387,0c0.09597,0 0.19194,0 0.38388,0c0.19194,0 0.19194,0.09597 0.19194,0.09597c0.19193,0 0.38387,0 0.47984,0c0.09597,0 0.28791,0 0.47985,0c0,0 0.12407,0.02811 0.19193,0.09597c0.13572,0.13572 0.22005,0.02811 0.28791,0.09597c0.13572,0.13572 0,0.28791 0.09597,0.28791c0.19194,0 0.24815,-0.03975 0.38387,0.09597c0.13572,0.13572 0,0.19194 0,0.38388c0,0.09597 0.12408,0.12408 0.19194,0.19194c0.13572,0.13572 0.22005,0.12408 0.28791,0.19194c0.06786,0.06786 0.02811,0.12408 0.09597,0.19194c0.13572,0.13572 0.38387,0.19194 0.38387,0.19194c0,0.19194 0.05622,0.15218 0.19194,0.28791c0.20358,0.20358 0.19194,0.38388 0.19194,0.47985c0,0.19194 0,0.38388 0.09597,0.38388c0,0 0.02811,0.12408 0.09597,0.19194c0.13572,0.13572 0.05621,0.15219 0.19193,0.28791c0.06786,0.06786 0,0.28791 0,0.47985c0,0 0,0.19194 0,0.38388c0,0.09597 0.09597,0.19194 0.09597,0.38388c0,0.19194 0,0.19194 0,0.38388c0,0.19194 -0.06786,0.31602 0,0.38388c0.06786,0.06786 0.09597,0.19194 0.09597,0.38388c0,0 0,0.19194 0,0.38388c0,0.09597 0,0.19194 0,0.38388c0,0.19194 0,0.19194 0,0.38388c0,0.19194 0,0.28791 0,0.38388c0,0.19194 0,0.38388 0,0.38388c0,0.19194 0,0.38388 0,0.47984c0,0.09597 -0.04403,0.25849 -0.09597,0.38388c-0.11018,0.26599 0.05045,0.49417 0,0.57581c-0.11282,0.18254 -0.19194,0.28791 -0.19194,0.38388c0,0.09597 0,0.28791 0,0.47985c0,0.09597 -0.19193,0.09597 -0.19193,0.19194c0,0.19194 0,0.38388 0,0.57581c0,0.09597 -0.07912,0.20133 -0.19194,0.38388c-0.10091,0.16327 -0.19194,0.28791 -0.19194,0.57582c0,0.09597 0.02205,0.29047 0,0.38388c-0.0493,0.20885 -0.09597,0.28791 -0.09597,0.38388c0,0.19194 0,0.28791 0,0.47985c0,0.09597 0,0.19194 0,0.38388c0,0.09597 0.02205,0.29047 0,0.38388c-0.0493,0.20885 -0.18764,0.34061 -0.2879,0.67179c-0.05562,0.1837 0.08344,0.30026 0,0.57581c-0.10027,0.33117 -0.19194,0.38388 -0.19194,0.47985c0,0.19194 0,0.38388 0,0.47985c0,0.09597 -0.05622,0.15218 -0.19194,0.28791c-0.06786,0.06786 0,0.19194 0,0.38388c0,0.19194 -0.12408,0.31602 -0.19194,0.38388c-0.06786,0.06786 -0.02811,0.22005 -0.09597,0.28791c-0.06786,0.06786 -0.18403,0.22906 -0.2879,0.47985c-0.03673,0.08866 -0.08807,0.13309 -0.19194,0.38388c-0.07345,0.17733 0,0.38388 -0.19194,0.57581c0,0 -0.08807,0.1331 -0.19194,0.38388c-0.03673,0.08867 -0.02811,0.12408 -0.09596,0.19194c-0.13572,0.13572 -0.02811,0.31602 -0.09597,0.38388c-0.27144,0.27144 -0.12579,0.48755 -0.19194,0.76775c-0.0493,0.20885 -0.14333,0.37222 -0.19194,0.67178c-0.01537,0.09473 0,0.47985 -0.19194,0.67179c-0.19193,0.19194 -0.23596,0.25848 -0.2879,0.38388c-0.07346,0.17733 0.0441,0.38901 0,0.57582c-0.0493,0.20885 -0.09597,0.28791 -0.09597,0.38388c0,0.19194 -0.19194,0.28791 -0.19194,0.38388c0,0.19194 -0.09597,0.38388 -0.09597,0.47985c0,0.09597 0,0.28791 0,0.38388c0,0.09597 -0.09597,0.57581 -0.09597,0.67178c0,0.19194 -0.19194,0.19194 -0.19194,0.28791c0,0.09597 -0.09167,0.24464 -0.19193,0.57582c-0.02781,0.09185 -0.09597,0.28791 -0.09597,0.38388c0,0.09597 -0.04035,0.39211 -0.09597,0.57582c-0.10027,0.33117 -0.16989,0.38644 -0.19194,0.47985c-0.0493,0.20885 -0.02982,0.29561 -0.09597,0.57581c-0.0493,0.20885 -0.17509,0.20134 -0.2879,0.38388c-0.15137,0.24491 -0.06816,0.48397 -0.09597,0.57582c-0.10027,0.33117 -0.19194,0.38388 -0.19194,0.57582c0,0.09597 0.03673,0.29521 0,0.38388c-0.05194,0.12539 -0.09597,0.28791 -0.09597,0.38388c0,0.19194 0,0.28791 0,0.47985c0,0.09597 0,0.19194 0,0.38387c0,0.09597 0,0.19194 0,0.38388c0,0.19194 0,0.28791 0,0.38387c0,0.19194 0,0.28791 0,0.38388c0,0.19194 0,0.38387 0,0.47984c0,0.09597 -0.05622,0.24816 -0.19194,0.38388c-0.06786,0.06786 0,0.28791 0,0.47984c0,0 -0.09597,0 -0.09597,0.38388c0,0.09597 0.17548,0.30437 -0.09596,0.57581c-0.13572,0.13572 -0.19194,0.38388 -0.19194,0.47985c0,0.09597 0.0441,0.48498 0,0.67178c-0.0493,0.20885 -0.09597,0.2879 -0.09597,0.57581c0,0.19194 0,0.19194 0,0.38388c0,0.19193 -0.19194,0.2879 -0.19194,0.38387c0,0.38388 -0.04667,0.36697 -0.09597,0.57582c-0.0441,0.1868 0,0.2879 0,0.38387c0,0.19194 -0.19194,0.19194 -0.19194,0.38388c0,0 0,0.19193 0,0.38387c0,0.09597 0,0.19194 0,0.38388c0,0.09597 0,0.19193 0,0.38387c0,0.19194 0.02205,0.29047 0,0.38388c-0.0493,0.20885 -0.09596,0.2879 -0.09596,0.38387c0,0.19194 -0.02811,0.31602 -0.09597,0.38388c-0.13572,0.13572 0,0.38387 0,0.47984c0,0.09597 -0.19194,0.09597 -0.19194,0.28791c0,0.09597 -0.02811,0.22005 -0.09597,0.28791c-0.06786,0.06786 0,0.2879 0,0.38387c0,0.09597 0,0.28791 0,0.38388c0,0.19193 -0.08807,0.22906 -0.19194,0.47984c-0.03673,0.08866 -0.02252,0.20655 -0.09597,0.38388c-0.05193,0.12539 -0.0281,0.41198 -0.09596,0.47984c-0.13572,0.13572 -0.16119,0.29039 -0.19194,0.47985c-0.04861,0.29956 -0.15219,0.24815 -0.28791,0.38387c-0.20358,0.20358 -0.05924,0.58312 -0.09597,0.67178c-0.10387,0.25079 -0.23597,0.25849 -0.2879,0.38388c-0.07345,0.17733 -0.02811,0.22004 -0.09597,0.2879c-0.13572,0.13572 0.13572,0.34413 0,0.47985c-0.13572,0.13572 -0.16989,0.09854 -0.19194,0.19194c-0.0493,0.20885 -0.15219,0.15218 -0.28791,0.2879c-0.20358,0.20358 0,0.47985 0,0.57582c0,0.09596 -0.09597,0.09596 -0.09597,0.2879c0,0.09597 -0.05621,0.05622 -0.19193,0.19194c-0.13572,0.13572 -0.09597,0.38388 -0.09597,0.47984c0,0.28791 -0.09597,0.28791 -0.09597,0.38388c0,0.28791 -0.05622,0.34412 -0.19194,0.47984c-0.13572,0.13572 -0.09597,0.38388 -0.09597,0.57582c0,0.19194 -0.19194,0.19194 -0.19194,0.38387c0,0 -0.09597,0.19194 -0.09597,0.38388c0,0.09597 -0.19193,0.09597 -0.19193,0.19194c0,0.19193 -0.02811,0.31601 -0.09597,0.38387c-0.13572,0.13572 -0.09597,0.19194 -0.09597,0.38388c0,0.09597 -0.19194,0.19193 -0.19194,0.38387c0,0.19194 -0.04667,0.17503 -0.09597,0.38388c-0.0441,0.18681 -0.09597,0.2879 -0.09597,0.38387c0,0.19194 -0.24815,0.24816 -0.38387,0.38388c-0.13572,0.13572 -0.09597,0.38387 -0.09597,0.47984c0,0.09597 -0.09597,0.28791 -0.09597,0.38388c0,0.09597 -0.19194,0.09597 -0.19194,0.2879c0,0.19194 0.02205,0.29048 0,0.38388c-0.0493,0.20885 -0.09597,0.28791 -0.09597,0.38388c0,0.19193 -0.09596,0.38387 -0.09596,0.47984c0,0.09597 0,0.28791 0,0.38388c0,0.09596 -0.19194,0.2879 -0.19194,0.47984c0,0.09597 0,0.19194 0,0.38387c0,0.09597 -0.19194,0.09597 -0.19194,0.19194c0,0.19194 0,0.28791 0,0.47985c0,0.09597 -0.02811,0.22004 -0.09597,0.2879c-0.06786,0.06786 0,0.19194 0,0.38388c0,0.09597 -0.09597,0.28791 -0.09597,0.38387c0,0.19194 -0.05622,0.15219 -0.19194,0.28791c-0.06786,0.06786 0,0.28791 0,0.38388c0,0.19193 0.06786,0.31601 0,0.38387c-0.06786,0.06786 -0.09596,0.19194 -0.09596,0.28791c0,0.19194 0,0.2879 0,0.47984c0,0.19194 -0.09597,0.38388 -0.09597,0.47985c0,0.19193 -0.07912,0.39326 -0.19194,0.57581c-0.05045,0.08163 0,0.28791 0,0.38388c0,0.09596 -0.05622,0.15218 -0.19194,0.2879c-0.13572,0.13572 0,0.28791 0,0.38388c0,0.19193 0,0.2879 0,0.38387c0,0.19194 0,0.38388 0,0.47985c0,0.09597 0,0.2879 0,0.38387c0,0.09597 0,0.28791 0,0.47985c0,0 0,0.19193 0,0.38387c0,0.09597 -0.11848,0.39849 -0.19194,0.57582c-0.10387,0.25077 -0.23596,0.35445 -0.2879,0.47984c-0.03673,0.08866 0,0.28791 0,0.47984c0,0 0,0.19194 0,0.38388c0,0.09597 0.13572,0.24815 0,0.38387c-0.06786,0.06786 -0.09597,0.19194 -0.09597,0.19194c0,0.19194 -0.06786,0.41199 0,0.47985c0.06786,0.06786 0.22004,0.02811 0.2879,0.09597c0.13572,0.13572 0.19194,0.19193 0.28791,0.38387c0,0 0.15219,-0.13572 0.28791,0c0.13572,0.13572 0.09597,0.19194 0.19194,0.19194c0.19193,0 0.2879,0 0.47984,0c0.09597,0 0.28791,0 0.38388,0c0.09596,0 0.2879,0 0.38387,0c0.19194,0 0.28791,0 0.47985,0c0.09596,0 0.19193,0 0.38387,0c0.09597,0 0.28791,0 0.38388,0c0.09596,0 0.2879,0 0.38387,0c0.19194,0 0.19194,-0.09597 0.28791,-0.09597c0.19194,0 0.2879,0 0.38387,0c0.19194,0 0.28791,0 0.47985,0c0.09597,0 0.2879,0 0.38387,0c0.09597,0 0.28791,0 0.38388,0c0.19194,0 0.28791,0 0.47984,0c0.09597,0 0.19194,0 0.38388,0c0.09597,0 0.12408,0.02811 0.19194,0.09597c0.13572,0.13572 0.29729,0.07912 0.47984,0.19194c0.08163,0.05045 0.22005,0.12408 0.28791,0.19193c0.06786,0.06786 0.19193,0.19194 0.19193,0.38388c0,0 0,0.19194 0,0.38387c0,0.09597 0,0.19194 0,0.38388c0,0.09597 0,0.19194 0,0.38388c0,0.19193 0,0.2879 0,0.38387c0,0.19194 -0.02811,0.22005 -0.09596,0.28791c-0.06786,0.06786 -0.22005,0.22004 -0.28791,0.2879c-0.13572,0.13572 -0.12408,0.22005 -0.19194,0.28791c-0.06786,0.06786 -0.31602,0.02811 -0.38387,0.09597c-0.13572,0.13572 -0.07906,0.23861 -0.28791,0.28791c-0.0934,0.02205 -0.22005,0.02811 -0.28791,0.09596c-0.06786,0.06786 -0.19193,0.19194 -0.38387,0.19194c-0.09597,0 -0.28791,0.09597 -0.38388,0.09597c-0.19194,0 -0.2879,0.19194 -0.38387,0.19194c-0.19194,0 -0.28791,0 -0.47985,0c-0.09597,0 -0.2879,0.09597 -0.38387,0.09597c-0.09597,0 -0.28791,0 -0.38388,0c-0.19194,0 -0.28791,0 -0.47984,0c-0.09597,0 -0.19194,0 -0.38388,0c-0.09597,0 -0.19194,0 -0.38387,0c-0.19194,0 -0.28791,0 -0.38388,0c-0.19194,0 -0.20133,0.07912 -0.38387,0.19194c-0.16327,0.10091 -0.38388,0 -0.47985,0c-0.09597,0 -0.28791,0 -0.38387,0c-0.09597,0 -0.28791,0 -0.47985,0c0,0 -0.17503,0.04666 -0.38387,0.09596c-0.09341,0.02205 -0.19194,0 -0.38388,0c-0.19194,0 -0.19194,0 -0.38387,0c-0.19194,0 -0.38388,0 -0.57582,0c-0.19194,0 -0.19194,0 -0.38387,0c-0.19194,0 -0.28791,0 -0.38388,0c-0.19194,0 -0.38387,0 -0.38387,0c-0.19194,0 -0.38388,0 -0.47985,0c-0.09597,0 -0.2879,0 -0.47984,0c0,0 -0.14867,-0.09167 -0.47985,-0.19193c-0.09185,-0.02781 -0.38387,0 -0.47984,0c-0.19194,0 -0.38388,-0.19194 -0.57581,-0.19194c-0.19194,0 -0.28791,0 -0.38388,0c-0.19194,0 -0.41199,0.06786 -0.47984,0c-0.06786,-0.06786 -0.09597,-0.09597 -0.28791,-0.09597c-0.09597,0 -0.12408,-0.02811 -0.19194,-0.09597c-0.13572,-0.13572 -0.19194,-0.19194 -0.19194,-0.28791c0,-0.09596 -0.22004,-0.0281 -0.2879,-0.09596c-0.13572,-0.13572 0.03975,-0.24816 -0.09597,-0.38388c-0.13572,-0.13572 -0.05622,-0.05622 -0.19194,-0.19194c-0.06786,-0.06786 -0.05924,-0.19924 -0.09597,-0.2879c-0.05194,-0.12539 -0.09597,-0.28791 -0.09597,-0.47985c0,-0.19194 0,-0.47984 0,-0.57581c0,-0.19194 -0.19193,-0.38388 -0.19193,-0.38388c0,-0.19193 0.03673,-0.39118 0,-0.47984c-0.05194,-0.12539 -0.09597,-0.28791 -0.09597,-0.47984c0,0 -0.19194,0 -0.19194,-0.19194c0,-0.19194 0.06786,-0.31602 0,-0.38388c-0.06786,-0.06786 -0.09597,-0.19194 -0.09597,-0.38387c0,0 0,-0.19194 0,-0.38388c0,-0.09597 0,-0.19194 0,-0.38387c0,-0.09597 0,-0.19194 0,-0.38388c0,-0.19194 0,-0.28791 0,-0.38388c0,-0.19193 -0.02205,-0.29047 0,-0.38387c0.0493,-0.20885 0.09597,-0.38388 0.09597,-0.47984c0,-0.09597 0,-0.28791 0,-0.38388c0,-0.09597 0,-0.28791 0,-0.47984c0,-0.09597 0,-0.19194 0,-0.38388c0,-0.09597 0.06522,-0.19442 0.09597,-0.38388c0.04861,-0.29956 0.18764,-0.34061 0.2879,-0.67178c0.02781,-0.09185 0.04403,-0.25848 0.09597,-0.38387c0.07346,-0.17733 0,-0.28791 0,-0.47985c0,-0.09597 0,-0.19193 0,-0.38387c0,-0.09597 0.09597,-0.28791 0.09597,-0.38388c0,-0.09597 0,-0.2879 0,-0.38387c0,-0.19194 0.19194,-0.19194 0.19194,-0.28791c0,-0.19194 0.19194,-0.19194 0.19194,-0.28791c0,-0.09597 0,-0.38387 0,-0.57581c0,-0.09597 -0.07345,-0.30252 0,-0.47984c0.10387,-0.25079 0.19194,-0.38388 0.19194,-0.57582c0,-0.19193 0,-0.2879 0,-0.38387c0,-0.19194 0.19193,-0.19194 0.19193,-0.28791c0,-0.09597 0,-0.28791 0,-0.47984c0,-0.09597 0.09597,-0.09597 0.09597,-0.19194c0,-0.19194 0,-0.28791 0,-0.38388c0,-0.19193 0,-0.38387 0,-0.38387c0,-0.19194 0.02811,-0.31602 0.09597,-0.38388c0.06786,-0.06786 0,-0.19193 0,-0.38387c0,-0.19194 0.19194,-0.19194 0.19194,-0.38388c0,-0.19194 0.09167,-0.24464 0.19194,-0.57581c0.05562,-0.18371 0,-0.19194 0,-0.38388c0,-0.19193 0,-0.2879 0,-0.38387c0,-0.19194 0.19193,-0.38388 0.19193,-0.38388c0.19194,0 0.11849,-0.20655 0.19194,-0.38387c0.05194,-0.12539 0.09597,-0.38388 0.09597,-0.57582c0,0 0,-0.19193 0,-0.38387c0,-0.09597 0.09597,-0.09597 0.09597,-0.19194c0,-0.19194 0.19194,-0.38387 0.19194,-0.38387c0,-0.19194 0.19193,-0.38388 0.19193,-0.57582c0,-0.19194 -0.02205,-0.29047 0,-0.38387c0.09861,-0.41771 0.19194,-0.47985 0.19194,-0.57582c0,-0.19193 0.12408,-0.31601 0.19194,-0.38387c0.06786,-0.06786 0.02251,-0.20655 0.09597,-0.38388c0.05194,-0.12539 0.09597,-0.19193 0.09597,-0.38387c0,-0.09597 0.05622,-0.05622 0.19194,-0.19194c0.13572,-0.13572 0,-0.28791 0,-0.47984c0,-0.09597 0.07912,-0.20134 0.19193,-0.38388c0.05045,-0.08163 0,-0.28791 0,-0.38388c0,-0.19193 0.19194,-0.19193 0.19194,-0.2879c0,-0.19194 -0.06786,-0.31602 0,-0.38388c0.13572,-0.13572 0.19194,-0.19193 0.19194,-0.2879c0,-0.19194 0.04403,-0.25849 0.09597,-0.38388c0.07346,-0.17733 -0.07345,-0.30252 0,-0.47984c0.05194,-0.12539 0.09597,-0.28791 0.09597,-0.38388c0,-0.09597 0.19193,-0.28791 0.19193,-0.38387c0,-0.19194 0.19194,-0.28791 0.19194,-0.57582c0,-0.09597 0,-0.2879 0,-0.38387c0,-0.19194 0,-0.28791 0,-0.47985c0,-0.09597 0.19194,-0.19193 0.19194,-0.38387c0,-0.09597 0.14784,-0.38902 0.19194,-0.57582c0.0493,-0.20885 -0.03975,-0.44009 0.09597,-0.57581c0.06786,-0.06786 0.09596,-0.19194 0.09596,-0.38387c0,-0.09597 0,-0.19194 0,-0.38388c0,-0.09597 0.11849,-0.20655 0.19194,-0.38387c0.10387,-0.25079 0.04057,-0.42688 0.19194,-0.67179c0.11282,-0.18255 0.28001,-0.421 0.38388,-0.67178c0.11018,-0.26599 -0.03976,-0.63203 0.09596,-0.76775c0.06786,-0.06786 0.17509,-0.2973 0.28791,-0.47984c0.05045,-0.08163 -0.13572,-0.34413 0,-0.47985c0.06786,-0.06786 0.09597,-0.19194 0.09597,-0.38387c0,-0.09597 0.09597,-0.09597 0.09597,-0.19194c0,-0.19194 0.19194,-0.19194 0.19194,-0.38388c0,0 -0.13572,-0.24815 0,-0.38387c0.13572,-0.13572 0.16988,-0.09854 0.19193,-0.19194c0.0493,-0.20885 0.12408,-0.22005 0.19194,-0.28791c0.06786,-0.06786 -0.10091,-0.31657 0,-0.47984c0.11282,-0.18255 0.19194,-0.19194 0.19194,-0.38388c0,-0.09596 0.04667,-0.17502 0.09597,-0.38387c0.0441,-0.18681 0.02811,-0.22005 0.09597,-0.28791c0.20358,-0.20358 0.1552,-0.39118 0.19193,-0.47984c0.10387,-0.25079 0.19194,-0.47985 0.19194,-0.57582c0,-0.19193 0.14333,-0.27625 0.19194,-0.57581c0.01537,-0.09473 0.16989,-0.29047 0.19194,-0.38387c0.0493,-0.20885 0.09597,-0.28791 0.09597,-0.38388c0,-0.19194 0.09597,-0.19194 0.09597,-0.28791c0,-0.19193 -0.13572,-0.34412 0,-0.47984c0.13572,-0.13572 0.12407,-0.12408 0.19193,-0.19194c0.06786,-0.06786 0.09597,-0.19194 0.09597,-0.2879c0,-0.19194 0.19194,-0.19194 0.19194,-0.28791c0,-0.09597 -0.06786,-0.31602 0,-0.38388c0.06786,-0.06786 0.09597,-0.19194 0.09597,-0.28791c0,-0.19194 0.05622,-0.15218 0.19194,-0.28791c0.06786,-0.06786 0.09597,-0.09597 0.09597,-0.28791c0,-0.09597 0.04403,-0.25849 0.09596,-0.38388c0.07345,-0.17733 -0.06786,-0.31602 0,-0.38388c0.13572,-0.13572 0.15521,-0.19925 0.19194,-0.28791c0.05194,-0.12539 0.09597,-0.28791 0.09597,-0.47985c0,-0.09597 0.19194,-0.19194 0.19194,-0.38388c0,-0.09597 0.09597,-0.19194 0.09597,-0.38388c0,-0.19194 -0.03673,-0.29521 0,-0.38388c0.10387,-0.25078 0.19194,-0.28791 0.19194,-0.38388c0,-0.19194 0.04666,-0.36697 0.09596,-0.57582c0.06614,-0.2802 0.05187,-0.38901 0.09597,-0.57581c0.09861,-0.41771 0.26814,-0.68018 0.47985,-1.15163c0.08791,-0.19576 0.0758,-0.48738 0.19193,-0.76776c0.16424,-0.39652 0.37958,-0.62852 0.47985,-0.95969c0.05562,-0.1837 -0.00494,-0.41254 0.09597,-0.57582c0.11282,-0.18254 0.22005,-0.12408 0.2879,-0.19194c0.13572,-0.13572 0,-0.38388 0,-0.38388c0,-0.19194 0,-0.38388 0,-0.57581c0,-0.19194 0.09597,-0.38388 0.09597,-0.57582c0,-0.19194 0.08807,-0.32504 0.19194,-0.57581c0.03673,-0.08867 0.04667,-0.17503 0.09597,-0.38388c0.0441,-0.18681 0,-0.28791 0,-0.38388c0,-0.19194 0.07912,-0.20133 0.19194,-0.38388c0.10091,-0.16327 0,-0.28791 0,-0.47984c0,-0.09597 0,-0.28791 0,-0.38388c0,-0.09597 -0.02205,-0.29047 0,-0.38388c0.0493,-0.20885 0.09597,-0.28791 0.09597,-0.47984c0,-0.09597 0,-0.19194 0,-0.38388c0,-0.28791 0,-0.38388 0,-0.57581c0,-0.09597 0,-0.38388 0,-0.47985c0,-0.19194 0.09167,-0.24464 0.19193,-0.57582c0.02781,-0.09185 0,-0.28791 0,-0.38388c0,-0.19194 0,-0.28791 0,-0.38388c0,-0.19194 0,-0.28791 0,-0.47985c0,-0.09597 0.09597,-0.28791 0.09597,-0.47985c0,-0.19194 0.01254,-0.30026 0.09597,-0.57581c0.10027,-0.33118 0.19194,-0.38388 0.19194,-0.67179c0,-0.28791 0.09597,-0.57581 0.09597,-0.67178c0,-0.19194 0.19194,-0.38388 0.19194,-0.57582c0,-0.19194 0.09597,-0.19194 0.09597,-0.38388c0,-0.19194 0,-0.28791 0,-0.38388c0,-0.19194 0,-0.38388 0,-0.57581c0,-0.19194 0.19193,-0.38388 0.19193,-0.57582c0,-0.19194 0,-0.19194 0,-0.38388c0,-0.19194 0.04403,-0.25848 0.09597,-0.38388c0.07346,-0.17733 0,-0.38388 0,-0.38388c0,-0.19194 0,-0.38388 0,-0.47985c0,-0.09597 0,-0.28791 0,-0.47985c0,-0.19194 0,-0.57582 0,-0.95969c0,-0.19194 -0.05093,-0.4131 0.09597,-0.76775c0.10387,-0.25078 0.19194,-0.67178 0.28791,-1.15163c0,0 0.09597,-0.38388 0.09597,-0.57582c0,-0.19194 0.19193,-0.57581 0.19193,-0.76775c0,-0.09597 0,-0.19194 0,-0.38388c0,-0.19194 0.13572,-0.24815 0,-0.38388c-0.06786,-0.06786 -0.06655,-0.23597 -0.19193,-0.28791c-0.08866,-0.03673 -0.09597,-0.09597 -0.09597,-0.28791l0,-0.09597l0,0l0,-0.09597" id="svg_4" stroke="#000" fill="none"/>
  <path d="m123.11308,4.5081c-0.09597,0 -0.19194,0 -0.38388,0c-0.09597,0 -0.19194,0 -0.38387,0c-0.19194,0 -0.19194,0 -0.38388,0c-0.19194,0 -0.22005,0.02811 -0.28791,0.09597c-0.06786,0.06786 -0.34412,-0.13572 -0.47984,0c-0.13572,0.13572 -0.24816,0.05622 -0.38388,0.19194c-0.06786,0.06786 -0.12407,0.02811 -0.19193,0.09597c-0.06786,0.06786 -0.05622,0.15219 -0.19194,0.28791c-0.13572,0.13572 -0.19194,0.19194 -0.19194,0.19194c0,0.09597 -0.24815,-0.03975 -0.38387,0.09597c-0.06786,0.06786 -0.02811,0.31602 -0.09597,0.38388c-0.06786,0.06786 -0.11058,0.02252 -0.28791,0.09597c-0.25078,0.10388 -0.09103,0.2206 -0.19194,0.38388c-0.11282,0.18255 -0.31601,0.12408 -0.38387,0.19194c-0.06786,0.06786 -0.09853,0.16989 -0.19194,0.19194c-0.20885,0.0493 -0.28297,0.2206 -0.38388,0.38388c-0.11282,0.18254 -0.31601,0.31602 -0.38387,0.38388c-0.06786,0.06786 -0.02811,0.22005 -0.09597,0.28791c-0.06786,0.06786 -0.15219,-0.03975 -0.28791,0.09597c-0.13572,0.13572 -0.04667,0.27099 -0.09597,0.47985c-0.02205,0.0934 0,0.28791 0,0.38388c0,0.09597 0,0.28791 0,0.38388c0,0.19194 0,0.28791 0,0.38388c0,0.19194 0,0.28791 0,0.47985c0,0.09597 0,0.28791 0,0.38388c0,0.09597 0.02205,0.29047 0,0.38388c-0.0493,0.20885 -0.09596,0.28791 -0.09596,0.47985c0,0.09597 -0.19194,0.09597 -0.19194,0.19194c0,0.19194 -0.05622,0.15219 -0.19194,0.28791c-0.13572,0.13572 0,0.28791 0,0.47985c0,0.09597 0,0.19194 0,0.38388c0,0.09597 0,0.19194 0,0.38388c0,0.19194 -0.09597,0.28791 -0.09597,0.38388c0,0.19194 0,0.28791 0,0.38388c0,0.19194 0,0.38388 0,0.47985c0,0.09597 0,0.28791 0,0.38388c0,0.09597 -0.13572,0.34412 0,0.47985c0.13572,0.13572 0.22517,-0.02827 0.38388,0.19194c0.12547,0.17409 0.02811,0.31602 0.09597,0.38388c0.06786,0.06786 0.09596,0.19194 0.09596,0.38388c0,0 0.05622,0.05622 0.19194,0.19194c0.13572,0.13572 0.05622,0.05622 0.19194,0.19194c0.13572,0.13572 0.19194,0.09597 0.38388,0.09597c0.09596,0 0.09596,0.09597 0.19193,0.09597c0.19194,0 0.19194,0.19194 0.38388,0.19194c0,0 0,0.19194 0.19194,0.19194c0.19193,0 0.15218,0.05622 0.2879,0.19194c0.06786,0.06786 0.34413,-0.13572 0.47985,0c0.13572,0.13572 0.05621,0.05622 0.19193,0.19194c0.06786,0.06786 0.19194,0.09597 0.28791,0.09597c0.09597,0 0.22005,0.02811 0.28791,0.09597c0.06786,0.06786 0.24815,-0.13572 0.38387,0c0.13572,0.13572 0.19194,0.19194 0.28791,0.19194c0.09597,0 0.15219,0.05622 0.28791,0.19194c0.06786,0.06786 0.19193,0 0.38387,0c0.19194,0 0.28791,0 0.38388,0c0.19193,0 0.2879,0 0.38387,0c0.19194,0 0.28791,0 0.47985,0c0.09597,0 0.2879,0 0.38387,0c0.09597,0 0.31602,0.06786 0.38388,0c0.06786,-0.06786 0.2386,-0.07906 0.2879,-0.28791c0.0441,-0.1868 0.19194,-0.19194 0.28791,-0.19194c0.09597,0 0.31602,-0.12408 0.38388,-0.19194c0.13572,-0.13572 0.19193,-0.28791 0.2879,-0.28791c0.19194,0 0.22005,-0.02811 0.28791,-0.09597c0.13572,-0.13572 0.02811,-0.22005 0.09597,-0.28791c0.06786,-0.06786 0.19924,-0.25118 0.2879,-0.28791c0.25079,-0.10388 0.12408,-0.31602 0.19194,-0.38388c0.06786,-0.06786 0.12408,-0.12408 0.19194,-0.19194c0.06786,-0.06786 0.12408,-0.12408 0.19194,-0.19194c0.06786,-0.06786 0.18403,-0.1331 0.2879,-0.38388c0.03673,-0.08866 0.02811,-0.12408 0.09597,-0.19194c0.13572,-0.13572 0.23597,-0.16252 0.28791,-0.28791c0.03673,-0.08866 0.05924,-0.29521 0.09597,-0.38388c0.10387,-0.25078 0.22005,-0.22005 0.28791,-0.28791c0.13572,-0.13572 0,-0.28791 0,-0.38388c0,-0.19194 0.05621,-0.15219 0.19193,-0.28791c0.13572,-0.13572 -0.07346,-0.30252 0,-0.47985c0.05194,-0.12539 0.09597,-0.19194 0.09597,-0.38388c0,-0.09597 0.19194,-0.09597 0.19194,-0.28791c0,-0.09597 0.09597,-0.09597 0.09597,-0.19194c0,-0.19194 -0.13572,-0.34412 0,-0.47985c0.06786,-0.06786 0.09596,-0.09597 0.09596,-0.28791c0,-0.09597 0,-0.19194 0,-0.38388c0,-0.09597 0,-0.28791 0,-0.38388c0,-0.19194 0,-0.28791 0,-0.38388c0,-0.19194 0,-0.28791 0,-0.47985c0,-0.09597 0,-0.28791 0,-0.38388c0,-0.09597 0,-0.28791 0,-0.38388c0,-0.09597 0,-0.28791 0,-0.47985c0,-0.09597 0.13573,-0.24816 0,-0.38388c-0.13572,-0.13572 -0.22004,-0.02811 -0.2879,-0.09597c-0.06786,-0.06786 -0.28791,0 -0.28791,-0.09597c0,-0.19194 -0.03712,-0.28 -0.2879,-0.38388c-0.08866,-0.03673 -0.31602,-0.02811 -0.38388,-0.09597c-0.06786,-0.06786 -0.15218,-0.15219 -0.2879,-0.28791c-0.06786,-0.06786 -0.02811,-0.12408 -0.09597,-0.19194c-0.13572,-0.13572 -0.15219,-0.05622 -0.28791,-0.19194c-0.13572,-0.13572 -0.19194,-0.19194 -0.19194,-0.19194c-0.09597,0 -0.09597,-0.19194 -0.19194,-0.19194c-0.19193,0 -0.22004,-0.12408 -0.2879,-0.19194c-0.06786,-0.06786 -0.02811,-0.12408 -0.09597,-0.19194c-0.13572,-0.13572 -0.24816,-0.05622 -0.38388,-0.19194c-0.06786,-0.06786 -0.09597,-0.19194 -0.19193,-0.19194c-0.19194,0 -0.22005,0.06786 -0.28791,0c-0.13572,-0.13572 -0.09597,-0.19194 -0.09597,-0.38388c0,-0.09597 -0.12408,-0.12408 -0.19194,-0.19194c-0.13572,-0.13572 -0.31601,0.06786 -0.38387,0c-0.13572,-0.13572 -0.19194,-0.19194 -0.28791,-0.19194c-0.09597,0 -0.09597,-0.19194 -0.28791,-0.19194l-0.19193,0" id="svg_8" stroke="#000" fill="none"/>
  <path d="m141.44321,35.4102c0,0 -0.09598,0 -0.09598,0.09597c0,0.09597 0.03976,0.24815 -0.09596,0.38388c-0.13573,0.13572 -0.19194,0.09597 -0.19194,0.28791c0,0.09597 -0.19194,0.09597 -0.19194,0.28791c0,0.09597 0,0.19194 0,0.38388c0,0.09597 -0.02811,0.22005 -0.09596,0.28791c-0.06786,0.06786 0.13573,0.24815 0,0.38388c-0.06787,0.06787 0.03975,0.15219 -0.09598,0.28791c-0.13573,0.13572 -0.19194,0.09597 -0.19194,0.28791c0,0.09597 0,0.19194 0,0.38388c0,0.09597 0,0.28791 0,0.38388c0,0.19194 0,0.28791 0,0.38388c0,0.19194 0,0.28791 0,0.38388c0,0.19194 0,0.38388 0,0.47985c0,0.09597 0,0.28791 0,0.38388c0,0.09597 0,0.28791 0,0.47985c0,0.09597 0,0.19194 0,0.38388c0,0.09597 -0.09596,0.09597 -0.09596,0.19194c0,0.19194 0,0.38388 0,0.38388c0,0.19194 0.00494,0.22061 -0.09596,0.38388c-0.11282,0.18254 -0.28,0.1331 -0.38388,0.38388c-0.07346,0.17733 0,0.19194 0,0.38388c0,0.19194 0,0.28791 0,0.28791c0,0.09597 0,0.28791 0,0.47985c0,0 0,0.19194 0,0.38388c0,0.09597 -0.19194,0.19194 -0.19194,0.38388c0,0.19194 -0.05621,0.05621 -0.19194,0.19194c-0.13573,0.13572 0,0.38388 0,0.47985c0,0.09597 0,0.28791 0,0.47985c0,0 -0.09596,0 -0.09596,0.19194c0,0.19194 0,0.28791 0,0.38388c0,0.19194 0,0.38388 0,0.38388c0,0.19194 0,0.38388 0,0.47985c0,0.09597 0,0.28791 0,0.38388c0,0.09597 0,0.28791 0,0.47985c0,0.09597 -0.09598,0.38388 -0.09598,0.47984c0,0.28791 0,0.47985 0,0.57582c0,0.09597 0,0.28791 0,0.38388c0,0.09597 0,0.28791 0,0.38388c0,0.19194 0,0.28791 0,0.47985c0,0.09597 -0.19194,0.09597 -0.19194,0.38388c0,0.09597 0,0.28791 0,0.57582c0,0.09597 0.05562,0.20017 0,0.38388c-0.10027,0.33117 -0.19194,0.38388 -0.19194,0.47985c0,0.19194 0,0.28791 0,0.47985c0,0.09597 0.05046,0.30224 0,0.38388c-0.11282,0.18254 -0.27106,0.20134 -0.38387,0.38388c-0.10091,0.16327 0,0.28791 0,0.47985c0,0.09597 0,0.19194 0,0.38388c0,0.09597 -0.09598,0.09597 -0.09598,0.28791c0,0.09597 -0.04402,0.25849 -0.09596,0.38388c-0.03673,0.08867 0,0.28791 0,0.38388c0,0.09597 0.10091,0.31658 0,0.47985c-0.11282,0.18254 -0.28362,0.14867 -0.38388,0.47985c-0.02782,0.09185 0.08344,0.30026 0,0.57582c-0.10027,0.33117 -0.27106,0.2973 -0.38388,0.47984c-0.10091,0.16327 -0.02811,0.31602 -0.09596,0.38388c-0.13573,0.13572 0.03673,0.39119 0,0.47985c-0.05194,0.1254 0.03975,0.34413 -0.09598,0.47985c-0.13573,0.13572 -0.28,0.13311 -0.38387,0.38388c-0.03673,0.08867 0.13573,0.44009 0,0.57582c-0.13573,0.13572 -0.27106,0.2973 -0.38388,0.47985c-0.05045,0.08163 0.03975,0.34412 -0.09598,0.47985c-0.06786,0.06786 -0.18402,0.13309 -0.2879,0.38388c-0.03673,0.08866 -0.08806,0.13309 -0.19194,0.38388c-0.07346,0.17733 0.13573,0.24815 0,0.38388c-0.13573,0.13572 -0.19194,0.19194 -0.19194,0.28791c0,0.09597 -0.19194,0.28791 -0.19194,0.38388c0,0.09597 -0.08183,0.49646 -0.19194,0.57582c-0.17407,0.12547 -0.21344,0.27858 -0.2879,0.47985c-0.13728,0.37111 -0.11382,0.45034 -0.2879,0.57582c-0.2202,0.15871 -0.12408,0.31601 -0.19194,0.38387c-0.06787,0.06786 -0.09598,0.19194 -0.09598,0.38388c0,0.09597 0,0.19194 0,0.38387c0,0.09597 0,0.19194 0,0.38388c0,0.09597 0,0.2879 0,0.38387c0,0.19194 0,0.28791 0,0.38388c0,0.19194 0,0.28791 0,0.47984c0,0.09597 -0.09596,0.28791 -0.09596,0.38388c0,0.28791 -0.16849,0.38531 -0.19194,0.57581c-0.04834,0.39273 -0.09596,0.47985 -0.09596,0.67178c0,0.09597 0,0.28791 0,0.38388c0,0.09597 0,0.28791 0,0.38387c0,0.19194 -0.09598,0.28791 -0.09598,0.47985c0,0.09597 0,0.19194 0,0.38387c0,0.09597 0.13573,0.24816 0,0.38388c-0.13573,0.13572 -0.16412,0.19606 -0.19194,0.28791c-0.10027,0.33117 -0.2879,0.38387 -0.2879,0.47984c0,0.38388 0.0554,0.52284 -0.09596,0.76775c-0.11282,0.18255 -0.28792,0.19194 -0.28792,0.57581c0,0.19194 -0.09596,0.19194 -0.09596,0.38388c0,0.09597 0,0.19194 0,0.38388c0,0.19193 -0.08806,0.13309 -0.19194,0.38387c-0.07346,0.17733 -0.05766,0.21648 -0.19194,0.38388c-0.24759,0.30865 -0.05186,0.38901 -0.09596,0.57581c-0.0493,0.20885 -0.09598,0.38387 -0.09598,0.57581c0,0.19194 -0.19194,0.19194 -0.19194,0.19194c0,0.19194 0.03673,0.39118 0,0.47984c-0.05194,0.12539 -0.09596,0.47985 -0.09596,0.47985c-0.09598,0.38387 -0.13901,0.55717 -0.2879,0.95969c-0.13728,0.37111 -0.25841,0.78561 -0.38388,0.95969c-0.15871,0.22021 -0.33458,0.5589 -0.38388,0.76775c-0.0882,0.3736 -0.22005,0.50796 -0.2879,0.57581c-0.06786,0.06786 -0.19194,0.38388 -0.19194,0.47984c0,0.09597 0,0.28791 0,0.38388c0,0.19194 0.20358,0.37224 0,0.57581c-0.06787,0.06786 -0.18765,0.24464 -0.28792,0.57582c-0.08344,0.27555 0.099,0.42342 -0.09596,0.76775c-0.20061,0.35431 -0.33458,0.36696 -0.38388,0.57581c-0.06615,0.2802 -0.2386,0.36697 -0.2879,0.57581c-0.0882,0.37361 0.01419,0.50176 -0.09598,0.76775c-0.10387,0.25077 -0.19193,0.28791 -0.19193,0.38388c0,0.28791 -0.02811,0.41198 -0.09598,0.47984c-0.06786,0.06786 0,0.28791 0,0.38388c0,0.09597 0,0.28791 0,0.38387c0,0.09597 -0.08806,0.22906 -0.19194,0.47985c-0.03673,0.08866 0.03673,0.39117 0,0.47984c-0.05194,0.12539 -0.02811,0.50796 -0.09596,0.57582c-0.13573,0.13572 -0.19194,0.09596 -0.19194,0.38387c0,0.09597 -0.09598,0.28791 -0.09598,0.47985c0,0.19193 0.01537,0.38511 0,0.47984c-0.04861,0.29956 -0.18402,0.421 -0.2879,0.67178c-0.11018,0.26599 -0.02251,0.59042 -0.09596,0.76775c-0.10388,0.25079 -0.15521,0.39119 -0.19194,0.47985c-0.05194,0.1254 -0.09598,0.2879 -0.09598,0.47984c0,0 0,0.19194 0,0.38388c0,0.09597 0,0.19193 0,0.38387c0,0.19194 0,0.19194 0,0.38388c0,0.19194 0.03673,0.2952 0,0.38387c-0.10387,0.25078 -0.19193,0.28791 -0.19193,0.38388c0,0.19194 0,0.38387 0,0.47984c0,0.09597 0,0.28791 0,0.47985c0,0.19193 0,0.47984 0,0.76775c0,0.19194 -0.04403,0.54639 -0.09597,0.67178c-0.03673,0.08866 0,0.38387 -0.09597,0.47984c-0.19194,0.19194 -0.19194,0.28791 -0.19194,0.47985c0,0.09597 -0.09596,0.09597 -0.09596,0.2879c0,0.09597 0,0.19194 0,0.38388c0,0.09597 -0.04403,0.25849 -0.09597,0.38388c-0.07345,0.17732 0.06786,0.31601 0,0.38387c-0.13572,0.13572 -0.19194,0.19194 -0.19194,0.28791c0,0.19194 -0.19194,0.19194 -0.19194,0.2879c0,0.09597 0,0.28791 0,0.38388c0,0.19194 0,0.28791 0,0.57581c0,0.09597 -0.09597,0.38388 -0.09597,0.57582c0,0.09596 0,0.2879 0,0.38387c0,0.09597 0,0.28791 0,0.38388c0,0.09597 0,0.2879 0,0.47984c0,0.09597 0,0.19194 0,0.38388c0,0.09597 0,0.19193 0,0.38387c0,0.19194 0.02811,0.22005 0.09597,0.28791c0.06786,0.06786 0.09597,0.09597 0.28791,0.09597c0.09597,0 0.12408,0.12407 0.19194,0.19193c0.06786,0.06786 0.19193,0.09597 0.2879,0.09597c0.19194,0 0.22005,0.02811 0.28791,0.09597c0.13573,0.13572 -0.03976,0.24816 0.09596,0.38388c0.13573,0.13572 0.23862,-0.01691 0.28792,0.19194c0.0441,0.1868 0.12408,0.22004 0.19194,0.2879c0.06786,0.06786 0.31601,-0.06786 0.38387,0c0.06786,0.06786 0.09598,0.09597 0.28792,0.09597c0.09596,0 0.15218,0.05622 0.2879,0.19194c0.06786,0.06786 0.2879,0 0.38388,0c0.09596,0 0.2879,0 0.38388,0c0.09596,0 0.2879,0 0.47984,0c0.09596,0 0.19194,0 0.38388,0c0.09596,0 0.19707,0.0441 0.38387,0c0.20886,-0.0493 0.31602,-0.02811 0.38388,-0.09597c0.06786,-0.06786 0.12408,-0.12408 0.19194,-0.19194c0.06786,-0.06786 0.09596,-0.19194 0.19194,-0.19194c0.19194,0 0.38388,0 0.38388,-0.19193c0,-0.09597 0.1552,-0.10328 0.19193,-0.19194c0.10388,-0.25079 0.22005,-0.22005 0.28792,-0.28791c0.06786,-0.06786 -0.06786,-0.31601 0,-0.38387c0.06786,-0.06786 0.1011,-0.14784 0.2879,-0.19194c0.20886,-0.0493 0.09103,-0.12463 0.19194,-0.28791c0.11282,-0.18255 0.24815,-0.05621 0.38388,-0.19193c0.13573,-0.13572 0.14,-0.16251 0.19194,-0.28791c0.07346,-0.17733 0.19194,-0.19194 0.19194,-0.28791c0,-0.19194 0.19193,-0.19194 0.19193,-0.2879c0,-0.09597 0.28,-0.03712 0.38388,-0.28791c0.03673,-0.08866 0.09598,-0.38388 0.19194,-0.47985c0.19194,-0.19194 0.38388,-0.19193 0.38388,-0.2879c0,-0.19194 0.00514,-0.43575 0.19194,-0.47985c0.20886,-0.0493 0.2879,-0.19193 0.2879,-0.38387c0,-0.09597 -0.03975,-0.15219 0.09598,-0.28791c0.13571,-0.13571 0.38387,-0.09597 0.38387,-0.09597c0,-0.19193 -0.06786,-0.31601 0,-0.38387c0.13573,-0.13572 0.12408,-0.22005 0.19194,-0.28791c0.13573,-0.13572 0.22005,-0.02811 0.28792,-0.09597c0.13573,-0.13572 0.0455,-0.39821 0.09596,-0.47984c0.11282,-0.18255 0.27106,-0.20133 0.38388,-0.38388c0.05046,-0.08163 -0.13571,-0.15218 0,-0.2879c0.13573,-0.13572 0.14148,-0.20628 0.19194,-0.28791c0.11282,-0.18255 0.22005,-0.22005 0.2879,-0.28791c0.06786,-0.06786 0.15218,-0.24815 0.2879,-0.38387c0.13573,-0.13572 0.04668,-0.17503 0.09598,-0.38388c0.0441,-0.18681 0.02811,-0.31601 0.09596,-0.38387c0.13573,-0.13572 0.19194,-0.19194 0.19194,-0.38388c0,0 0.14784,-0.00513 0.19194,-0.19194c0.0493,-0.20885 0.12407,-0.22004 0.19194,-0.2879c0.06786,-0.06786 0.05621,-0.15219 0.19194,-0.28791c0.13573,-0.13572 -0.13573,-0.24816 0,-0.38388c0.06786,-0.06786 0.12407,-0.12407 0.19194,-0.19193c0.06786,-0.06786 0.02867,-0.09104 0.19193,-0.19194c0.3651,-0.22564 0.23862,-0.36697 0.28792,-0.57581c0.0441,-0.18681 0.02811,-0.31602 0.09596,-0.38388c0.13573,-0.13572 0.22005,-0.12408 0.28792,-0.19194c0.13571,-0.13572 0.02811,-0.12408 0.09596,-0.19193c0.13573,-0.13572 0.22005,-0.31602 0.2879,-0.38388c0.06786,-0.06786 0.10538,-0.463 0.28792,-0.57581c0.16327,-0.10091 0.18503,-0.25058 0.38387,-0.47985c0.14059,-0.16212 0.31767,-0.3203 0.57582,-0.47984c0.23091,-0.14271 0.19194,-0.38389 0.2879,-0.47985c0.09598,-0.09597 0.33194,-0.25848 0.38388,-0.38387c0.03673,-0.08867 0.19925,-0.44312 0.28792,-0.47985c0.12538,-0.05193 0.21445,-0.20654 0.2879,-0.38387c0.05194,-0.12539 0.47194,-0.13309 0.57582,-0.38388c0.11017,-0.26599 0.10327,-0.34715 0.19193,-0.38387c0.25078,-0.10387 0.23598,-0.25848 0.28792,-0.38388c0.07346,-0.17733 0.16989,-0.1945 0.19194,-0.2879c0.0493,-0.20885 0.12463,-0.187 0.2879,-0.28791c0.18254,-0.11282 0.28362,-0.24464 0.38388,-0.57581c0.02782,-0.09185 0.29782,-0.27892 0.38387,-0.38388c0.21938,-0.2676 0.33458,-0.36696 0.38388,-0.57581c0.02205,-0.09341 0.12408,-0.31602 0.19194,-0.38388c0.06787,-0.06786 0.20979,-0.2584 0.38388,-0.38387c0.22021,-0.15871 0.12447,-0.34682 0.38388,-0.57582c0.16087,-0.14201 0.35643,-0.40419 0.57581,-0.67178c0.25815,-0.31487 0.38388,-0.38388 0.67178,-0.67178c0.09598,-0.09597 0.28792,-0.47984 0.47986,-0.57581c0.19194,-0.09597 0.24815,-0.1522 0.38387,-0.28791c0.06786,-0.06786 0.01433,-0.14148 0.09598,-0.19194c0.18254,-0.11282 0.187,-0.2206 0.2879,-0.38387c0.11282,-0.18255 0.19194,-0.19194 0.19194,-0.19194c0,-0.19194 0.12408,-0.22005 0.19194,-0.28791c0.13573,-0.13572 0.2386,-0.07906 0.2879,-0.2879c0.0441,-0.18681 0.09598,-0.19194 0.09598,-0.19194c0.19194,-0.19194 0.38388,-0.38388 0.38388,-0.47985c0,-0.09596 0.13309,-0.37597 0.38387,-0.47984c0.08867,-0.03673 0.12408,-0.41199 0.19194,-0.47984c0.13573,-0.13572 0.24815,0.03975 0.38388,-0.09597c0.13573,-0.13572 0,-0.38388 0,-0.38388c0,0 0.19194,0 0.19194,-0.38387c0,-0.09597 0.12408,-0.12408 0.19194,-0.19194c0.06786,-0.06786 0.19194,-0.19194 0.19194,-0.38388c0,0 0.11847,-0.01461 0.19193,-0.19193c0.10388,-0.25079 0.24815,-0.24816 0.38388,-0.38388c0.27144,-0.27145 0.19194,-0.38388 0.19194,-0.38388c0.09598,-0.19193 0.06656,-0.4279 0.19194,-0.47984c0.17732,-0.07346 0.05621,-0.15219 0.19194,-0.28791c0.06786,-0.06786 0.08424,-0.09669 0.09596,-0.19193c0.04836,-0.39273 0.36703,-0.2973 0.47986,-0.47985c0.05046,-0.08163 0.02811,-0.22005 0.09596,-0.2879c0.06786,-0.06786 0.02811,-0.12408 0.09596,-0.19194c0.27144,-0.27145 0.23598,-0.45042 0.28792,-0.57582c0.07346,-0.17732 0.27209,-0.26619 0.47984,-0.76775c0.03673,-0.08866 0.14264,-0.17502 0.19194,-0.38387c0.02205,-0.0934 0.05621,-0.24816 0.19194,-0.38388c0.06786,-0.06786 0.14264,-0.07906 0.19194,-0.2879c0.02205,-0.0934 0.23184,-0.07304 0.38387,-0.38388c0.13333,-0.27263 0.24327,-0.50967 0.38388,-0.67178c0.19885,-0.22927 0.39093,-0.56925 0.47984,-0.67178c0.31439,-0.36251 0.41628,-0.60557 0.57582,-0.86372c0.07135,-0.11545 0.27377,-0.30452 0.38388,-0.38388c0.17409,-0.12547 0.19194,-0.2879 0.2879,-0.38387c0.19194,-0.19195 0.26585,-0.19451 0.2879,-0.28791c0.0493,-0.20885 0.4171,-0.35561 0.57582,-0.57581c0.12549,-0.17409 0.28995,-0.43506 0.47984,-0.67179c0.35016,-0.43652 0.53845,-0.39916 0.67178,-0.67178c0.15202,-0.31084 0.36703,-0.20132 0.47986,-0.38387c0.10091,-0.16328 0.02811,-0.22005 0.09596,-0.28791c0.06786,-0.06786 0.05621,-0.15219 0.19194,-0.28791c0.06786,-0.06786 0.28,-0.13309 0.38388,-0.38387c0.07346,-0.17733 0.02811,-0.22005 0.09596,-0.28791c0.06787,-0.06786 0.15221,-0.15218 0.28792,-0.2879c0.13571,-0.13571 0.19193,-0.19194 0.2879,-0.19194c0.09596,0 0.09596,-0.19194 0.2879,-0.38388c0.09598,-0.09597 0.10329,-0.15521 0.19194,-0.19194c0.25078,-0.10388 0.39821,-0.33343 0.47984,-0.38388c0.18256,-0.11282 0.28792,-0.38388 0.38388,-0.47985c0.09596,-0.09597 0.37894,-0.31657 0.47984,-0.47985c0.22565,-0.36509 0.45042,-0.42791 0.57582,-0.47985c0.17734,-0.07345 0.38388,-0.28791 0.38388,-0.28791c0.19194,-0.19194 0.24815,-0.05623 0.38387,-0.19194c0.13573,-0.13572 0.02252,-0.20655 0.09598,-0.38388c0.05194,-0.12539 0.22005,-0.12408 0.2879,-0.19194c0.13573,-0.13572 0.05621,-0.24816 0.19194,-0.38388c0.13573,-0.13572 0.38388,0 0.38388,-0.19194c0,-0.19194 0.05923,-0.19924 0.09596,-0.28791c0.05194,-0.1254 0.10112,-0.24381 0.28792,-0.28791c0.20886,-0.0493 0.11848,-0.20655 0.19194,-0.38388c0.10387,-0.25077 0.40048,-0.27377 0.47984,-0.38388c0.12547,-0.17408 0.36702,-0.20133 0.47984,-0.38388c0.10091,-0.16327 0.05621,-0.24815 0.19194,-0.38388c0.06786,-0.06786 0.12408,-0.12408 0.19194,-0.19194c0.06786,-0.06786 0.12407,-0.12407 0.19194,-0.19194c0.06786,-0.06786 0,-0.19194 0.19194,-0.19194c0.19193,0 0.19193,-0.19194 0.19193,-0.19194c0,-0.09597 0.09103,-0.12464 0.19194,-0.28791c0.11282,-0.18254 0.23215,-0.13617 0.38388,-0.28791c0.15173,-0.15174 0.18503,-0.15461 0.38388,-0.38388c0.14061,-0.16211 0.29564,-0.1427 0.47984,-0.38388c0.21002,-0.27499 0.34235,-0.41106 0.47984,-0.57581c0.30746,-0.36841 0.47986,-0.38387 0.76776,-0.67179c0.09596,-0.09597 0.23215,-0.23213 0.38388,-0.38388c0.15173,-0.15174 0.2879,-0.28791 0.38387,-0.38388c0.19194,-0.19194 0.28792,-0.19194 0.28792,-0.28791c0,-0.19194 0.02811,-0.22005 0.09596,-0.28791c0.13573,-0.13572 0.22005,-0.12408 0.2879,-0.19194c0.06786,-0.06786 0.15457,-0.11126 0.28792,-0.38388c0.15202,-0.31083 0.40501,-0.36419 0.67178,-0.67179c0.31439,-0.3625 0.54631,-0.4977 0.67178,-0.67178c0.23807,-0.33031 0.63474,-0.50835 0.86372,-0.76775c0.14201,-0.16088 0.40173,-0.35437 0.57582,-0.47985c0.11009,-0.07936 0.19945,-0.26774 0.47984,-0.38388c0.19826,-0.08212 0.14867,-0.37957 0.47984,-0.47985c0.09184,-0.02781 0.05621,-0.24815 0.19194,-0.38388c0.13573,-0.13572 0.31601,-0.0281 0.38388,-0.09597c0.06786,-0.06786 0.05621,-0.15218 0.19194,-0.28791c0.13573,-0.13572 0.10536,-0.27106 0.2879,-0.38388c0.08163,-0.05045 0.31897,-0.14589 0.47984,-0.28791c0.25941,-0.229 0.2973,-0.36703 0.47984,-0.47985c0.08165,-0.05046 0.25841,-0.20979 0.38388,-0.38388c0.07936,-0.11011 0.22005,-0.12408 0.2879,-0.19194c0.13573,-0.13572 0.1331,-0.28 0.38388,-0.38388c0.17732,-0.07345 0.29523,-0.15522 0.38388,-0.19194c0.25078,-0.10387 0.31602,-0.31602 0.38388,-0.38388c0.13573,-0.13572 0.22061,-0.09103 0.38388,-0.19194c0.18254,-0.11282 0.38387,-0.19194 0.57581,-0.38388c0,0 0.19194,-0.19194 0.38388,-0.28791c0.19194,-0.09597 0.30438,-0.01646 0.57582,-0.28791c0.06786,-0.06786 0.05621,0.03974 0.19193,-0.09597c0.06786,-0.06786 0.05621,-0.34412 0.19194,-0.47985c0.06787,-0.06787 0.44009,0.03976 0.57582,-0.09597c0.06786,-0.06786 -0.01691,-0.33458 0.19194,-0.38388c0.18681,-0.0441 0.19194,-0.09597 0.2879,-0.09597c0.09598,0 0.09598,-0.19194 0.28792,-0.38388c0.09596,-0.09597 0.20016,-0.13632 0.38387,-0.19194c0.33118,-0.10027 0.41255,-0.28297 0.57582,-0.38388c0.18254,-0.11282 0.24815,-0.24815 0.38388,-0.38388c0.13573,-0.13572 0.29047,-0.07392 0.38388,-0.09597c0.20885,-0.0493 0.21648,-0.15363 0.38387,-0.28791c0.30865,-0.2476 0.412,-0.12408 0.47986,-0.19194c0.06786,-0.06786 0.20132,-0.07912 0.38387,-0.19194c0.08165,-0.05046 0.29204,-0.06816 0.38388,-0.09597c0.33118,-0.10027 0.2879,-0.28791 0.47984,-0.28791c0.09598,0 0.22061,0.10091 0.38388,0c0.18254,-0.11282 0.29047,-0.16989 0.38388,-0.19194c0.20885,-0.0493 0.2879,-0.09597 0.38388,-0.09597c0.19193,0 0.2879,0 0.47984,0c0.09596,0 0.19194,0 0.38388,0c0.09596,0 0.2879,0 0.38387,0c0.19194,0 0.20134,0.27106 0.38388,0.38388c0.16327,0.10091 0.16252,0.14 0.2879,0.19194c0.17732,0.07346 0.27101,0.23861 0.47986,0.28791c0.0934,0.02205 0.12407,0.0281 0.19194,0.09597c0.13573,0.13572 0,0.38388 0.19193,0.38388c0.09598,0 0.19194,0.19194 0.19194,0.38388c0,0.09597 0,0.19194 0,0.38388c0,0.19194 0,0.19194 0,0.38388c0,0.19194 0,0.28791 0,0.38388c0,0.19194 0,0.38388 0,0.38388c0.19194,0 0.19194,0.38388 0.19194,0.47985c0,0.09597 0,0.28791 0,0.47984c0,0 0.08806,0.1331 0.19194,0.38388c0.03673,0.08867 0,0.19194 0,0.38388c0,0.19194 0,0.19194 0,0.38388c0,0.19194 0,0.28791 0,0.38388c0,0.19194 0,0.38388 0,0.38388c0,0.19194 0,0.38388 0,0.47985c0,0.09597 -0.09596,0.28791 -0.09596,0.38388c0,0.09597 0,0.28791 0,0.47985c0,0.09597 0.10091,0.2206 0,0.38388c-0.11282,0.18254 -0.19194,0.19194 -0.19194,0.38388c0,0.19194 0.06786,0.31602 0,0.38388c-0.06787,0.06787 -0.09598,0.19194 -0.09598,0.28791c0,0.09597 -0.02811,0.22005 -0.09596,0.28791c-0.06786,0.06786 0.03673,0.29521 0,0.38388c-0.10388,0.25078 -0.19194,0.28791 -0.19194,0.38388c0,0.19194 -0.05923,0.19924 -0.09596,0.28791c-0.10388,0.25078 -0.16245,0.30576 -0.28792,0.47985c-0.07936,0.1101 0.03976,0.24815 -0.09596,0.38388c-0.13573,0.13572 -0.11848,0.11058 -0.19194,0.28791c-0.05194,0.1254 -0.15219,0.05623 -0.2879,0.19194c-0.13573,0.13572 -0.04668,0.27099 -0.09598,0.47985c-0.02205,0.0934 -0.15521,0.29521 -0.19194,0.38388c-0.05194,0.12539 -0.19194,0.28791 -0.19194,0.38388c0,0.19194 -0.19194,0.19194 -0.19194,0.28791c0,0.19194 -0.02811,0.22005 -0.09596,0.28791c-0.06786,0.06786 0,0.28791 0,0.38388c0,0.19194 -0.19194,0.28791 -0.19194,0.47985c0,0.09597 -0.04666,0.17503 -0.09596,0.38388c-0.02205,0.0934 -0.08806,0.1331 -0.19194,0.38388c-0.07346,0.17733 -0.04736,0.27625 -0.09598,0.57581c-0.01538,0.09473 -0.02811,0.12408 -0.09596,0.19194c-0.27144,0.27144 -0.19194,0.47985 -0.19194,0.57581c0,0.19194 -0.04402,0.25849 -0.09596,0.38388c-0.07346,0.17733 -0.02811,0.31601 -0.09598,0.38388c-0.13573,0.13572 0.05045,0.39821 0,0.47985c-0.11282,0.18254 -0.1331,0.37597 -0.38388,0.47985c-0.08865,0.03672 0.03976,0.24816 -0.09596,0.38388c-0.06787,0.06787 -0.09598,0.09597 -0.09598,0.19194c0,0.19194 0,0.38388 0,0.38388c-0.19193,0 -0.23929,0.18028 -0.2879,0.47985c-0.01538,0.09473 -0.12918,0.25964 -0.2879,0.47985c-0.25095,0.34818 -0.23598,0.45042 -0.28792,0.57581c-0.07346,0.17733 -0.15218,0.24815 -0.2879,0.38388c-0.13573,0.13572 0.06786,0.41199 0,0.47985c-0.06786,0.06786 -0.09596,0.09597 -0.09596,0.28791c0,0.09597 -0.09598,0.09597 -0.09598,0.19194c0,0.19194 -0.28,0.32504 -0.38387,0.57582c-0.07344,0.17733 0.11018,0.30982 0,0.57581c-0.10388,0.25078 -0.15521,0.29522 -0.19194,0.38388c-0.10388,0.25078 -0.28792,0.2879 -0.28792,0.38387c0,0.19194 -0.04402,0.35446 -0.09596,0.47985c-0.03673,0.08867 0,0.2879 -0.19194,0.38387c-0.19194,0.09597 -0.19194,0.28791 -0.19194,0.57581c0,0.09597 -0.27106,0.2973 -0.38388,0.47985c-0.15137,0.24491 -0.09596,0.47984 -0.09596,0.57581c0,0.19194 -0.09598,0.28791 -0.09598,0.38388c0,0.19194 0,0.2879 0,0.47984c0,0.09597 -0.19193,0.09597 -0.19193,0.19194c0,0.19194 -0.08806,0.22906 -0.19194,0.47984c-0.03673,0.08866 0.10091,0.12463 0,0.28791c-0.11282,0.18255 -0.05621,0.24816 -0.19194,0.38388c-0.13573,0.13572 -0.19194,0.09596 -0.19194,0.2879c0,0.09597 -0.02811,0.31602 -0.09598,0.38388c-0.06786,0.06786 0.01413,0.30451 -0.09596,0.38387c-0.17409,0.12548 -0.19194,0.28791 -0.19194,0.47985c0,0.09597 -0.19194,0.09597 -0.19194,0.19194c0,0.19193 -0.09167,0.24464 -0.19194,0.57581c-0.05562,0.18371 -0.05621,0.15218 -0.19194,0.2879c-0.06786,0.06786 -0.04402,0.25849 -0.09596,0.38388c-0.03673,0.08867 -0.02251,0.11058 -0.09596,0.28791c-0.10388,0.25078 -0.28,0.32503 -0.38388,0.57581c-0.07346,0.17733 0,0.38388 -0.19194,0.57581c0,0 -0.05621,0.24816 -0.19194,0.38388c-0.06786,0.06786 -0.09596,0.09597 -0.09596,0.19194c0,0.19193 -0.09598,0.19193 -0.09598,0.38387c0,0.19194 -0.08806,0.32504 -0.19194,0.57581c-0.07346,0.17733 -0.19194,0.38388 -0.19194,0.38388c0,0.19194 0,0.19194 0,0.38388c0,0.09596 0,0.19193 0,0.38387c0,0.19194 -0.19194,0.19194 -0.19194,0.38388c0,0.2879 -0.19193,0.38387 -0.19193,0.57581c0,0.19194 -0.04668,0.36697 -0.09598,0.57581c-0.02205,0.0934 -0.09596,0.19194 -0.09596,0.38388c0,0.09597 -0.19194,0.38387 -0.19194,0.57581c0,0.09597 -0.08061,0.38512 -0.09598,0.47985c-0.04861,0.29955 -0.13615,0.52004 -0.2879,0.67178c-0.30348,0.30348 -0.23929,0.56416 -0.2879,0.86372c-0.04611,0.28419 -0.02252,0.30251 -0.09598,0.47984c-0.10388,0.25079 -0.22005,0.22005 -0.2879,0.28791c-0.13573,0.13572 0.13573,0.34412 0,0.47984c-0.06786,0.06786 -0.09596,0.09597 -0.09596,0.19194c0,0.19194 -0.08806,0.22906 -0.19194,0.47984c-0.03673,0.08866 0,0.19194 0,0.38388c0,0.09597 -0.19194,0.09597 -0.19194,0.28791c0,0.09597 -0.09598,0.2879 -0.09598,0.38387c0,0.09597 0.10287,0.34655 -0.09596,0.57581c-0.14061,0.16212 -0.23596,0.25849 -0.2879,0.38388c-0.03673,0.08867 -0.04404,0.25848 -0.09598,0.38388c-0.07346,0.17732 -0.08806,0.22906 -0.19194,0.47984c-0.03673,0.08866 -0.04666,0.17503 -0.09596,0.38388c-0.02205,0.0934 0.07346,0.20654 0,0.38387c-0.10388,0.25079 -0.16989,0.29048 -0.19194,0.38388c-0.0493,0.20885 -0.05925,0.2952 -0.09598,0.38387c-0.10387,0.25077 -0.2386,0.36697 -0.2879,0.57581c-0.0441,0.18681 -0.04735,0.27626 -0.09596,0.57582c-0.03075,0.18946 -0.08176,0.40579 -0.19194,0.67178c-0.05194,0.1254 -0.26447,0.28934 -0.28792,0.47984c-0.04834,0.39273 -0.09598,0.57582 -0.2879,0.95969c-0.09596,0.19194 -0.09596,0.47985 -0.19194,0.76775c-0.19196,0.57582 0.02399,0.90812 -0.2879,1.15163c-0.15129,0.11813 -0.15521,0.39118 -0.19194,0.47984c-0.05194,0.12539 -0.09596,0.28791 -0.09596,0.38388c0,0.09597 0,0.28791 0,0.47984c0,0.09597 0,0.19194 0.09596,0.19194c0.09596,0 0.28,-0.05885 0.38388,0.19194c0.03673,0.08866 0,0.19194 0,0.38387c0,0.19194 0,0.28791 0,0.38388c0,0.19194 0,0.28791 0,0.38388c0,0.19193 0,0.38387 0,0.47984c0,0.09597 0.04402,0.25849 0.09596,0.38387c0.03673,0.08866 0,0.28791 0,0.57582c0,0.2879 0.02811,0.31601 0.09598,0.38387c0.06786,0.06786 0,0.28791 0,0.38388c0,0.19194 0.27106,0.10538 0.38387,0.28791c0.15135,0.2449 0.14264,0.36696 0.19194,0.57581c0.02205,0.09341 0,0.28791 0,0.38387c0,0.09597 0,0.28791 0,0.38388c0,0.19194 0.20856,0.1778 0.28792,0.28791c0.12547,0.17408 0.11382,0.2584 0.2879,0.38387c0.22021,0.15871 0.22005,0.22005 0.2879,0.28791c0.13573,0.13572 0.09598,0.19194 0.09598,0.2879c0,0.19194 0.07912,0.20133 0.19194,0.38388c0.10091,0.16328 0,0.28791 0,0.38388c0,0.19193 0,0.38387 0,0.47984c0,0.28791 0.04666,0.46293 0.09596,0.67178c0.0882,0.37361 0,0.67178 0,0.76775c0,0.19194 0,0.38388 0,0.38388c0,0.38387 -0.06786,0.50795 0,0.57581c0.06787,0.06786 0.34412,-0.13572 0.47984,0c0.13573,0.13572 0.1331,0.28001 0.38388,0.38388c0.08867,0.03673 0.10329,-0.03672 0.19194,0c0.25078,0.10387 0.38388,0.19193 0.38388,0.19193c0.19194,0 0.35446,0.23597 0.47984,0.28791c0.08865,0.03673 0.2879,0.09597 0.47984,0.09597c0,0 0.19194,0 0.38388,0c0.09596,0 0.19194,0 0.38388,0c0.19194,0 0.19194,0 0.38387,0c0.19194,0 0.20134,0.07912 0.38388,0.19194c0.16327,0.10091 0.38388,0 0.38388,0c0.19194,0 0.38388,0 0.57582,0c0.19194,0 0.2879,0 0.38387,0c0.19194,0 0.38388,0 0.47986,0c0.09596,0 0.20132,0.07912 0.38387,0.19193c0.08165,0.05046 0.28792,0 0.47986,0c0.09596,0 0.19194,0 0.38387,0c0.09598,0 0.19194,0 0.38388,0c0.19194,0 0.28792,0 0.38388,0c0.19194,0 0.2879,0 0.38388,0c0.19194,0 0.2879,0 0.47984,0c0.09596,0 0.38388,0 0.47984,0c0.19194,0 0.2879,0 0.47984,0c0.09598,0 0.28792,0 0.38388,0c0.2879,0 0.38388,0 0.67178,0c0.09598,0 0.28792,0 0.38388,0c0.19194,0 0.22005,-0.02811 0.2879,-0.09596c0.13573,-0.13572 0.16252,-0.23597 0.28792,-0.28791c0.08865,-0.03672 0.22005,-0.02811 0.2879,-0.09597c0.06786,-0.06786 -0.03975,-0.24815 0.09596,-0.38387c0.13573,-0.13572 0.23598,-0.06654 0.28792,-0.19194c0.07346,-0.17733 0.05621,-0.15219 0.19194,-0.28791c0.06786,-0.06786 -0.11017,-0.30982 0,-0.57581c0.05194,-0.12539 0.09596,-0.28791 0.09596,-0.38388c0,-0.09597 0,-0.2879 0,-0.38387c0,-0.19194 0,-0.28791 0,-0.47985c0,-0.09597 0,-0.19193 0,-0.38387c0,-0.09597 0,-0.28791 0,-0.38388c0,-0.19194 -0.12407,-0.22004 -0.19194,-0.2879c-0.06786,-0.06786 0.03976,-0.15219 -0.09596,-0.28791c-0.13573,-0.13572 -0.28792,0 -0.47984,0c-0.09598,0 -0.28792,0 -0.38388,0c-0.09598,0 -0.2585,-0.04403 -0.38388,-0.09597c-0.17732,-0.07346 -0.2879,0 -0.47984,0c-0.09598,0 -0.19194,0 -0.38388,0c-0.09596,0 -0.19194,0 -0.38388,0c-0.2879,0 -0.32504,-0.08806 -0.57581,-0.19194c-0.08867,-0.03673 -0.19194,0 -0.38388,0c-0.19194,0 -0.28792,0 -0.38388,0c-0.19194,0 -0.2879,0 -0.38388,0c-0.19194,0 -0.19194,-0.09597 -0.38387,-0.09597c0,0 -0.19194,0 -0.38388,0c-0.09598,0 -0.09598,-0.09597 -0.19194,-0.09597c-0.19194,0 -0.38388,0 -0.38388,0c-0.19194,0 -0.41199,0.06786 -0.47984,0c-0.13571,-0.13572 -0.09598,-0.19193 -0.2879,-0.19193c-0.19194,0 -0.16367,-0.1292 -0.38388,-0.28791c-0.17409,-0.12547 -0.19194,-0.28791 -0.19194,-0.38388c0,-0.09596 -0.04404,-0.25848 -0.09598,-0.38387c-0.07346,-0.17733 0,-0.28791 0,-0.47984c0,-0.09597 0,-0.19194 0,-0.38388c0,-0.09597 0,-0.19194 0,-0.38388c0,-0.19193 0,-0.2879 0,-0.38387c0,-0.19194 0,-0.28791 0,-0.38388c0,-0.19193 0.07912,-0.29729 0.19194,-0.47984c0.05046,-0.08163 0.19194,-0.38388 0.19194,-0.47985c0,-0.19193 0.09598,-0.38387 0.09598,-0.38387c0,-0.19194 0.09596,-0.38388 0.09596,-0.47984c0,-0.09597 0,-0.28791 0,-0.47985c0,0 0.05621,-0.24815 0.19194,-0.38387c0.13573,-0.13572 0.09596,-0.38388 0.09596,-0.57582c0,-0.19194 0.09598,-0.38387 0.09598,-0.57581c0,-0.19194 0,-0.38388 0,-0.38388c0,-0.38387 0.19194,-0.47984 0.19194,-0.57581c0,-0.19194 0,-0.38387 0.19194,-0.38387c0,0 0.04666,-0.17503 0.09596,-0.38388c0.0441,-0.18681 0.09598,-0.57581 0.09598,-0.57581c0.19193,-0.19194 0.26585,-0.48241 0.2879,-0.57582c0.0493,-0.20885 0.09596,-0.2879 0.09596,-0.38387c0,-0.19194 0.19194,-0.38388 0.19194,-0.47985c0,-0.09596 0.15521,-0.29521 0.19194,-0.38387c0.05194,-0.1254 0.14264,-0.271 0.19194,-0.47985c0.0441,-0.1868 0.23596,-0.35445 0.2879,-0.47984c0.03673,-0.08867 0.04404,-0.25848 0.09598,-0.38388c0.07346,-0.17732 0.19194,-0.2879 0.19194,-0.47984c0,-0.09597 0.14731,-0.31773 0.2879,-0.47984c0.19884,-0.22926 0.12463,-0.37894 0.2879,-0.47985c0.18256,-0.11282 0.14,-0.35445 0.19194,-0.47984c0.07346,-0.17733 -0.03673,-0.29522 0,-0.38388c0.10388,-0.25079 0.34557,-0.40842 0.47984,-0.57581c0.2476,-0.30865 0.28792,-0.57581 0.47986,-0.86372c0.19193,-0.28791 0.34198,-0.45129 0.57581,-0.95969c0.12682,-0.27572 0.33194,-0.35445 0.38388,-0.47984c0.11017,-0.266 0.19194,-0.28791 0.19194,-0.38388c0,-0.19194 0.02811,-0.31602 0.09596,-0.38387c0.06786,-0.06786 0,-0.19194 0,-0.38388c0,-0.09597 0,-0.19194 0,-0.38388c0,-0.19193 0.19194,-0.2879 0.19194,-0.38387c0,-0.19194 0.07393,-0.29047 0.09598,-0.38388c0.0493,-0.20885 0.09596,-0.38387 0.09596,-0.38387c0,-0.19194 0.19194,-0.38388 0.19194,-0.47985c0,-0.09596 -0.13573,-0.34412 0,-0.47984c0.06786,-0.06786 0.18402,0.05885 0.2879,-0.19194c0.11017,-0.26599 0.02252,-0.39848 0.09598,-0.57581c0.10388,-0.25079 0.05623,-0.44009 0.19194,-0.57581c0.06786,-0.06786 0.09596,-0.09597 0.09596,-0.19194c0,-0.19194 0.02252,-0.20655 0.09598,-0.38388c0.10387,-0.25077 0.23596,-0.35445 0.2879,-0.47984c0.03673,-0.08866 0.09596,-0.28791 0.09596,-0.47985c0,0 0.19194,-0.38387 0.19194,-0.47984c0,-0.09597 0.19194,-0.28791 0.19194,-0.38388c0,-0.09596 0.09598,-0.09596 0.09598,-0.47984c0,-0.09597 0.02251,-0.20655 0.09596,-0.38387c0.10388,-0.25079 0.2879,-0.38388 0.2879,-0.67179c0,-0.09597 0.09598,-0.2879 0.09598,-0.38387c0,-0.09597 0,-0.28791 0,-0.28791c0,-0.19194 0,-0.28791 0,-0.38387c0,-0.19194 0.13632,-0.20017 0.19194,-0.38388c0.10027,-0.33117 0.22003,-0.41198 0.2879,-0.47984c0.06786,-0.06786 0,-0.28791 0,-0.38388c0,-0.09597 0.05923,-0.29521 0.09596,-0.38387c0.10388,-0.25079 0.11848,-0.30252 0.19194,-0.47985c0.05194,-0.1254 -0.03973,-0.24815 0.09598,-0.38387c0.06786,-0.06786 0.09596,-0.09597 0.09596,-0.28791c0,-0.09597 0.13632,-0.20018 0.19194,-0.38388c0.10027,-0.33117 0.28,-0.32503 0.38388,-0.57581c0.03673,-0.08866 -0.13571,-0.24815 0,-0.38387c0.13573,-0.13572 0.19194,-0.09597 0.19194,-0.28791c0,-0.09597 0.04402,-0.25849 0.09596,-0.38388c0.11017,-0.26599 0.18764,-0.34061 0.2879,-0.67178c0.08342,-0.27556 0.19194,-0.57581 0.19194,-0.67178c0,-0.09597 0,-0.28791 0,-0.47985c0,-0.09596 0,-0.19193 0,-0.38387c0,-0.09597 0,-0.19194 0,-0.38388c0,-0.19193 0,-0.19193 0,-0.38387c0,-0.28791 0,-0.38388 0,-0.57581c0,-0.19194 0,-0.38388 0,-0.57582c0,-0.09597 0.05621,-0.05621 0.19194,-0.19194c0.13573,-0.13572 0,-0.38388 0,-0.38388c0,-0.19194 0,-0.38388 0,-0.47985c0,-0.09597 -0.13573,-0.34412 0,-0.47985c0.13573,-0.13572 0.19194,0 0.19194,-0.19194c0,-0.19194 0,-0.28791 0,-0.38388c0,-0.19194 0,-0.38388 0.09598,-0.38388c0,0 0,-0.19194 0,-0.38388c0,-0.09597 0.09596,-0.09597 0.09596,-0.19194c0,-0.38388 0.08806,-0.32504 0.19194,-0.57582c0.07346,-0.17733 0.19194,-0.28791 0.19194,-0.38388c0,-0.19194 0,-0.28791 0,-0.38388c0,-0.19194 0.05621,-0.24815 0.19194,-0.38388c0.06786,-0.06786 0,-0.19194 0,-0.38388c0,-0.09597 0.10374,-0.20221 0.19194,-0.57582c0.0493,-0.20885 0.16411,-0.48396 0.19193,-0.57581c0.10027,-0.33118 0.19194,-0.57582 0.19194,-0.76776c0,-0.19194 0.07912,-0.2973 0.19194,-0.47984c0.10091,-0.16327 0,-0.28791 0,-0.47985c0,-0.09597 0.08806,-0.1331 0.19194,-0.38388c0.11018,-0.266 0.19194,-0.38388 0.19194,-0.47985c0,-0.19194 0.09596,-0.28791 0.09596,-0.47985c0,-0.09597 0,-0.28791 0,-0.38388c0,-0.09597 0,-0.28791 0,-0.38388c0,-0.19194 0,-0.28791 0,-0.47985c0,-0.09597 0,-0.19194 0,-0.38388c0,-0.09597 0,-0.28791 0,-0.38388c0,-0.19194 0,-0.28791 0,-0.38388c0,-0.19194 0,-0.28791 0,-0.38388c0,-0.19194 0.09598,-0.47985 0.09598,-0.57582c0,-0.19194 0.07912,-0.20133 0.19194,-0.38388c0.10091,-0.16327 0,-0.38388 0,-0.47985c0,-0.09597 0.19194,-0.09597 0.19194,-0.28791c0,-0.09597 -0.13573,-0.24816 0,-0.38388c0.13573,-0.13572 0.19194,-0.19194 0.38387,-0.19194c0,0 0,-0.19194 0,-0.38388c0,-0.09597 0.09598,-0.19194 0.09598,-0.38388c0,-0.19194 -0.15163,-0.26716 0.09596,-0.57582c0.13428,-0.16739 0.28528,-0.15811 0.38388,-0.57581c0.0882,-0.37361 0,-0.47985 0.38388,-0.95969c0,0 -0.01422,-0.21386 0.09596,-0.47985c0.05194,-0.1254 0.09598,-0.28791 0.09598,-0.47985c0,0 -0.09598,0 -0.09598,-0.19194c0,-0.19194 0.03673,-0.29522 0,-0.38388c-0.10388,-0.25078 -0.23923,-0.38621 -0.19194,-0.86372c0.04822,-0.48697 0.08623,-1.27561 0.28792,-1.82342c0.19334,-0.52513 0.25053,-0.5911 0.38387,-0.86372c0.30405,-0.62168 0.41371,-0.9674 0.47986,-1.2476c0.0493,-0.20885 0.09596,-0.28791 0.09596,-0.38388c0,-0.19194 -0.07346,-0.30252 0,-0.47985c0.10388,-0.25078 0.2879,-0.67178 0.2879,-0.76775c0,-0.19194 0.02811,-0.22004 0.09598,-0.28791c0.06786,-0.06786 0.13573,-0.15219 0,-0.28791c-0.06787,-0.06787 -0.22005,-0.02811 -0.2879,-0.09597c-0.13573,-0.13572 -0.1331,-0.08806 -0.38388,-0.19194c-0.17732,-0.07345 -0.31602,-0.02811 -0.38388,-0.09597c-0.13573,-0.13572 -0.19194,-0.19194 -0.38388,-0.19194c0,0 -0.00514,-0.05187 -0.19194,-0.09597c-0.20886,-0.0493 -0.15218,-0.15219 -0.2879,-0.28791c-0.06786,-0.06786 -0.15218,0.03975 -0.2879,-0.09597c-0.06786,-0.06786 -0.19194,-0.09597 -0.19194,-0.09597c0,-0.19194 -0.19194,-0.19193 -0.38388,-0.38388c-0.09596,-0.09597 -0.24815,0.03975 -0.38388,-0.09597c-0.06786,-0.06786 -0.19194,-0.09597 -0.19194,-0.28791c0,0 0,-0.09597 -0.19193,-0.09597c-0.19194,0 -0.22005,-0.0281 -0.28792,-0.09597c-0.13573,-0.13572 -0.09596,-0.19194 -0.2879,-0.19194c-0.09598,0 -0.12408,-0.12408 -0.19194,-0.19194c-0.06786,-0.06786 -0.24815,0.03976 -0.38388,-0.09597c-0.06786,-0.06786 -0.10327,-0.05924 -0.19194,-0.09597c-0.25078,-0.10388 -0.2879,-0.19194 -0.38387,-0.19194c-0.19194,0 -0.31602,-0.02811 -0.38388,-0.09597c-0.06787,-0.06787 -0.20656,0.07346 -0.38388,0c-0.12538,-0.05194 -0.19194,-0.09597 -0.38388,-0.09597c-0.19194,0 -0.2879,0 -0.38388,0c-0.19193,0 -0.19193,-0.19194 -0.2879,-0.19194c-0.09596,0 -0.2879,-0.19194 -0.38388,-0.19194c-0.19194,0 -0.2879,0 -0.47984,0c-0.09596,0 -0.19194,0 -0.38388,0c-0.09596,0 -0.2879,0 -0.38387,0c-0.19194,0 -0.28792,0 -0.38388,0c-0.19194,0 -0.2879,0 -0.47984,0c-0.09598,0 -0.20654,-0.07345 -0.38388,0c-0.1254,0.05194 -0.31601,0.0281 -0.38388,0.09597c-0.13573,0.13572 -0.19194,0.19194 -0.2879,0.19194c-0.09598,0 -0.22006,0.02811 -0.28792,0.09597c-0.06786,0.06786 -0.31601,-0.06786 -0.38387,0c-0.06786,0.06786 -0.20627,0.04551 -0.28792,0.09597c-0.18254,0.11282 -0.2879,0.19194 -0.38387,0.19194c-0.09598,0 -0.31659,-0.00494 -0.47986,0.09597c-0.18254,0.11282 -0.17502,0.2386 -0.38387,0.28791c-0.09341,0.02205 -0.09598,0.19194 -0.19194,0.19194c-0.19194,0 -0.41199,-0.06787 -0.47986,0c-0.06786,0.06786 -0.29521,0.05925 -0.38387,0.09597c-0.1254,0.05194 -0.47984,0.28791 -0.47984,0.38388c0,0 -0.05621,0.05622 -0.19194,0.19194c-0.20358,0.20359 -0.36696,0.04667 -0.57582,0.09597c-0.1868,0.0441 -0.19194,0.19194 -0.19194,0.19194c-0.19194,0 -0.31602,0.02811 -0.38388,0.09597c-0.06786,0.06786 -0.09596,0.09597 -0.19194,0.09597c-0.19193,0 -0.38387,0.19194 -0.38387,0.19194c-0.19194,0.09597 -0.43056,0.07905 -0.47986,0.28791c-0.02205,0.0934 -0.2879,0.19194 -0.47984,0.19194c0,0 0,0.19194 -0.19194,0.19194c-0.19194,0 -0.31601,-0.06786 -0.38387,0c-0.06786,0.06786 -0.19194,0.09597 -0.38388,0.09597c0,0 -0.1331,0.08806 -0.38388,0.19194c-0.08865,0.03672 -0.24815,-0.13572 -0.38388,0c-0.06786,0.06786 -0.19194,0.09597 -0.19194,0.09597c-0.19194,0 -0.2973,0.07912 -0.47984,0.19194c-0.08163,0.05045 -0.29521,0.05924 -0.38388,0.09597c-0.12538,0.05194 -0.30252,0.21445 -0.47984,0.28791c-0.12538,0.05194 -0.19708,0.2438 -0.38388,0.28791c-0.20885,0.0493 -0.39847,0.21446 -0.57581,0.28791c-0.1254,0.05194 -0.22061,0.09103 -0.38388,0.19194c-0.18254,0.11282 -0.31602,0.31602 -0.38388,0.38388c-0.06786,0.06786 -0.20132,0.27106 -0.38388,0.38388c-0.16327,0.1009 -0.25848,0.14 -0.38387,0.19194c-0.17732,0.07346 -0.271,0.23861 -0.47986,0.28791c-0.0934,0.02205 -0.20132,0.17509 -0.38387,0.28791c-0.08165,0.05046 -0.31767,0.12836 -0.57582,0.28791c-0.11545,0.07135 -0.19194,0.09597 -0.38388,0.28791c-0.09596,0.09597 -0.3468,0.12448 -0.57581,0.38388c-0.14203,0.16088 -0.21385,0.08176 -0.47986,0.19194c-0.25078,0.10388 -0.31766,0.3203 -0.57581,0.47985c-0.11546,0.07135 -0.20134,0.17509 -0.38388,0.28791c-0.16327,0.10091 -0.19194,0.19194 -0.2879,0.19194c0,0 -0.05621,0.05622 -0.19194,0.19194c-0.06787,0.06787 -0.1803,-0.01164 -0.38388,0.19194c-0.06786,0.06786 -0.15811,0.47721 -0.57582,0.57582c-0.0934,0.02205 -0.13292,0.03571 -0.38387,0.38388c-0.07936,0.11011 -0.26836,0.01548 -0.57582,0.38388c-0.13751,0.16475 -0.23494,0.04058 -0.47984,0.19194c-0.18256,0.11282 -0.49771,0.45034 -0.67178,0.57582c-0.2202,0.15872 -0.32504,0.47194 -0.57582,0.57582c-0.17732,0.07345 -0.44252,0.18504 -0.67178,0.38388c-0.16212,0.1406 -0.28792,0.38388 -0.47984,0.38388c0,0 -0.05621,0.05621 -0.19194,0.19194c-0.13573,0.13572 -0.22005,0.12407 -0.28792,0.19194c-0.06786,0.06786 -0.02811,0.12408 -0.09596,0.19194c-0.13573,0.13572 -0.14148,0.20627 -0.19194,0.28791c-0.11282,0.18254 -0.16367,0.32113 -0.38388,0.47985c-0.17409,0.12547 -0.23213,0.23214 -0.38387,0.38388c-0.15173,0.15174 -0.36591,0.40372 -0.57582,0.57581c-0.26759,0.21937 -0.41364,0.3203 -0.67178,0.47985c-0.11546,0.07135 -0.34656,0.18504 -0.57582,0.38388c-0.16211,0.1406 -0.08432,0.27627 -0.2879,0.47985c-0.06787,0.06787 -0.12059,0.23214 -0.57582,0.38388c-0.09103,0.03035 -0.2973,0.463 -0.47984,0.57582c-0.08165,0.05046 -0.49646,0.36974 -0.57582,0.47985c-0.12547,0.17408 -0.32544,0.36176 -0.67178,0.57581c-0.25815,0.15955 -0.33194,0.25848 -0.38388,0.38388c-0.07346,0.17733 -0.12407,0.22005 -0.19193,0.28791c-0.06787,0.06787 -0.14264,0.07906 -0.19194,0.28791c-0.02205,0.0934 -0.05621,0.15219 -0.19194,0.28791c-0.06787,0.06787 -0.18404,0.03713 -0.28792,0.28791c-0.03673,0.08866 0.00494,0.2206 -0.09596,0.38388c-0.11282,0.18254 -0.22005,0.22005 -0.2879,0.28791c-0.06786,0.06786 -0.02811,0.22004 -0.09598,0.28791c-0.06786,0.06786 -0.05621,0.05622 -0.19194,0.19194c-0.13573,0.13572 -0.02811,0.22005 -0.09596,0.28791c-0.06786,0.06786 -0.09167,0.24464 -0.19194,0.57582c-0.02782,0.09185 -0.04402,0.25849 -0.09596,0.38388c-0.03673,0.08867 -0.09598,0.09597 -0.09598,0.28791c0,0.19194 -0.12408,0.31602 -0.19194,0.38388c-0.06786,0.06786 -0.11057,0.11849 -0.2879,0.19194c-0.1254,0.05194 -0.03714,0.47194 -0.2879,0.57581c-0.08867,0.03673 -0.19194,0.19194 -0.38388,0.38388c-0.09598,0.09597 -0.32356,0.16763 -0.57582,0.57581c-0.11281,0.18254 -0.20979,0.35437 -0.38388,0.47985c-0.11009,0.07936 -0.05621,0.34412 -0.19194,0.47985c-0.13571,0.13571 -0.46571,0.40049 -0.57581,0.47985c-0.17409,0.12548 -0.38388,0.47985 -0.57582,0.47985c-0.19194,0 -0.05621,0.24815 -0.19194,0.38388c-0.06786,0.06786 -0.12408,0.02811 -0.19194,0.09597c-0.13571,0.13571 -0.0562,0.15219 -0.19193,0.28791c-0.06787,0.06787 -0.10329,0.15521 -0.19194,0.19194c-0.25078,0.10388 -0.33342,0.39821 -0.38388,0.47985c-0.11282,0.18254 -0.4171,0.25964 -0.57582,0.47985c-0.25095,0.34818 -0.31602,0.50796 -0.38388,0.57582c-0.13571,0.13571 -0.38387,0.19193 -0.47984,0.28791c-0.09596,0.09597 -0.15218,0.15218 -0.2879,0.28791c-0.13573,0.13572 -0.19194,0.19194 -0.19194,0.28791c0,0 0.02826,0.12919 -0.19194,0.2879c-0.17409,0.12547 -0.10408,0.29602 -0.38388,0.57582c-0.27979,0.27979 -0.40524,0.16546 -0.76775,0.47984c-0.10254,0.08893 -0.22301,0.24186 -0.38388,0.38388c-0.2594,0.229 -0.16367,0.32113 -0.38388,0.47984c-0.17409,0.12547 -0.27617,0.19827 -0.38388,0.38388c-0.17368,0.29927 -0.35605,0.29202 -0.38387,0.38387c-0.10027,0.33118 -0.57582,0.67178 -0.86372,0.95969c-0.28792,0.28792 -0.62566,0.34148 -0.86372,0.67178c-0.12549,0.17409 -0.33231,0.07199 -0.57582,0.38388c-0.11812,0.15129 -0.09598,0.19193 -0.38388,0.47984c-0.09596,0.09597 -0.20979,0.25842 -0.38387,0.38388c-0.33031,0.23808 -0.38388,0.2879 -0.57582,0.38387c-0.19194,0.09597 -0.24815,0.15219 -0.38388,0.28791c-0.13573,0.13572 -0.02811,0.31602 -0.09596,0.38388c-0.13573,0.13572 -0.12408,0.22004 -0.19194,0.2879c-0.06787,0.06786 -0.15219,-0.03975 -0.28792,0.09597c-0.13573,0.13572 -0.10588,0.37489 -0.19193,0.47984c-0.21938,0.26759 -0.39162,0.43061 -0.57582,0.67179c-0.21002,0.27498 -0.60559,0.3569 -0.86372,0.67178c-0.21938,0.2676 -0.39401,0.43693 -0.47984,0.47984c-0.4292,0.21459 -0.50795,0.41199 -0.57582,0.47985c-0.06786,0.06786 -0.09596,0.09597 -0.09596,0.2879c0,0.19194 -0.05621,0.05622 -0.19194,0.19194c-0.13573,0.13572 0,0.38388 0,0.47985c0,0.09596 -0.09598,0.2879 -0.09598,0.47984c0,0 -0.05621,0.05622 -0.19194,0.19194c-0.13573,0.13572 0,0.2879 -0.09596,0.38387c-0.19194,0.19195 -0.19194,0.38388 -0.19194,0.38388c-0.09596,0 -0.06647,0.20979 -0.19194,0.38387c-0.15872,0.22021 -0.2879,0.57582 -0.2879,0.57582c-0.09598,0 0.03973,0.24815 -0.09598,0.38387c-0.13571,0.13571 -0.1552,0.10328 -0.19193,0.19194c-0.10388,0.25079 -0.22005,0.22005 -0.28792,0.28791c-0.06786,0.06786 -0.18402,0.22906 -0.2879,0.47984c-0.03673,0.08866 -0.06647,0.20979 -0.19194,0.38388c-0.15871,0.22021 -0.24815,0.24815 -0.38388,0.38387c-0.06786,0.06786 -0.02811,0.22005 -0.09596,0.28791c-0.06787,0.06786 -0.15219,-0.03975 -0.28792,0.09597c-0.13573,0.13572 -0.05923,0.19924 -0.09596,0.2879c-0.05194,0.12539 -0.11382,0.25841 -0.2879,0.38388c-0.22021,0.15871 -0.05623,0.34412 -0.19194,0.47984c-0.13573,0.13572 -0.15521,0.10328 -0.19194,0.19194c-0.10388,0.25079 -0.15218,0.34413 -0.2879,0.47985c-0.06787,0.06786 -0.15219,-0.03976 -0.28792,0.09596c-0.13573,0.13572 -0.07912,0.20133 -0.19194,0.38388c-0.10091,0.16328 0.15219,0.32766 0.28792,0.19194c0.06786,-0.06786 0.05923,-0.10328 0.09596,-0.19194c0.05194,-0.1254 0.15219,-0.34412 0.2879,-0.47984c0.13573,-0.13572 0.20856,-0.08183 0.28792,-0.19194c0.12547,-0.17409 -0.01422,-0.30983 0.09596,-0.57582c0.10388,-0.25078 0.2393,-0.27625 0.28792,-0.57581c0.01538,-0.09473 -0.05093,-0.22116 0.09596,-0.57581c0.10388,-0.25079 0.23929,-0.4682 0.2879,-0.76775c0.03075,-0.18946 0.04503,-0.22117 0.19194,-0.57582c0.05194,-0.12539 0.09598,-0.38387 0.28792,-0.57581c0,0 -0.0441,-0.19707 0,-0.38387c0.0493,-0.20885 0.05186,-0.38902 0.09596,-0.57582c0.0493,-0.20885 0.33458,-0.36696 0.38388,-0.57581c0.0441,-0.18681 0.14784,-0.38902 0.19194,-0.57581c0.0493,-0.20885 0.21445,-0.39849 0.2879,-0.57582c0.05194,-0.12539 0.09596,-0.19193 0.09596,-0.38387c0,-0.19194 -0.13571,-0.44009 0,-0.57581c0.06787,-0.06786 0.09598,-0.09597 0.09598,-0.19194c0,-0.19194 0,-0.38388 0,-0.47985c0,-0.09597 0.05621,-0.15218 0.19194,-0.2879c0.06786,-0.06786 0,-0.19194 0,-0.38388c0,-0.19194 0.02811,-0.22005 0.09596,-0.28791c0.06786,-0.06786 0.05621,-0.15218 0.19194,-0.2879c0.06786,-0.06786 -0.07346,-0.20655 0,-0.38388c0.05194,-0.1254 0.09598,-0.2879 0.09598,-0.38387c0,-0.19194 0,-0.28791 0,-0.38388c0,-0.19194 -0.00494,-0.31657 0.09596,-0.47984c0.11282,-0.18255 0.15521,-0.29521 0.19194,-0.38388c0.05194,-0.12539 0.05923,-0.29521 0.09596,-0.38387c0.10388,-0.25079 0.19194,-0.28791 0.19194,-0.38388c0,-0.19194 0.09598,-0.28791 0.09598,-0.47984c0,-0.09597 0.19194,-0.28791 0.19194,-0.38388c0,-0.09597 0.09596,-0.09597 0.09596,-0.2879c0,-0.09597 0.04402,-0.25849 0.09596,-0.38388c0.07346,-0.17733 0,-0.28791 0,-0.38388c0,-0.19193 0,-0.2879 0,-0.38387c0,-0.19194 0.19194,-0.47985 0.19194,-0.57581c0,-0.19194 -0.01421,-0.30983 0.09598,-0.57582c0.10388,-0.25079 0.2879,-0.57581 0.2879,-0.67178c0,-0.09597 0.05621,-0.34412 0.19194,-0.47984c0.13573,-0.13572 0.02811,-0.31602 0.09596,-0.38388c0.06786,-0.06786 0.02811,-0.12408 0.09598,-0.19194c0.13571,-0.13572 0.05621,-0.24815 0.19194,-0.38387c0.13573,-0.13572 0,-0.38388 0,-0.47985c0,-0.09597 0.09596,-0.28791 0.09596,-0.47985c0,0 0.08806,-0.1331 0.19194,-0.38388c0.03673,-0.08867 0,-0.19194 0,-0.38388c0,-0.19194 0.09596,-0.19194 0.09596,-0.38388c0,-0.19194 0.09167,-0.24464 0.19194,-0.57582c0.05562,-0.1837 -0.0441,-0.19707 0,-0.38388c0.0493,-0.20886 0.09598,-0.28791 0.09598,-0.57582c0,-0.19194 -0.13573,-0.24815 0,-0.38388c0.06786,-0.06786 0.09596,-0.19194 0.09596,-0.28791c0,-0.09597 0.17656,-0.28915 0.19194,-0.38388c0.04861,-0.29957 0.14264,-0.46294 0.19194,-0.67179c0.0441,-0.1868 0.07912,-0.20133 0.19194,-0.38388c0.10091,-0.16327 -0.06786,-0.41199 0,-0.47985c0.13573,-0.13572 0.11848,-0.11058 0.19194,-0.28791c0.05194,-0.12539 0.14,-0.35445 0.19194,-0.47985c0.07346,-0.17733 0,-0.28791 0,-0.47985c0,-0.09597 0.08806,-0.13309 0.19194,-0.38388c0.03673,-0.08866 0,-0.28791 0,-0.38388c0,-0.19194 0.09596,-0.28791 0.09596,-0.38388c0,-0.19194 0.09596,-0.28791 0.09596,-0.47985c0,-0.09597 0,-0.19194 0,-0.38388c0,-0.09597 0,-0.28791 0,-0.38388c0,-0.19194 0,-0.28791 0,-0.38388c0,-0.19194 0,-0.28791 0,-0.47985c0,-0.09597 0,-0.28791 0,-0.38388c0,-0.09597 0,-0.28791 0,-0.38388c0,-0.19194 0,-0.28791 0,-0.47985c0,-0.09597 0,-0.19194 0,-0.47985c0,-0.09597 0,-0.47984 0,-0.57581c0,-0.28791 0.04057,-0.71479 0.19194,-0.95969c0.11282,-0.18254 0.15675,-0.38604 0.19194,-0.67178c0.04836,-0.39273 0.09598,-0.76776 0.09598,-1.15163c0,0 0,-0.47984 0,-0.57581c0,-0.38388 0,-0.76775 0,-0.86372c0,-0.28791 0,-0.47985 0,-0.86372c0,-0.19194 0.09596,-0.38388 0.09596,-0.57582c0,-0.19194 0.19194,-0.38388 0.19194,-0.47985c0,-0.09597 0,-0.28791 0,-0.38388c0,-0.09597 0,-0.28791 0,-0.57581c0,-0.09597 -0.03673,-0.29522 0,-0.38388c0.05194,-0.12539 0.09596,-0.28791 0.09596,-0.47985c0,-0.09597 0,-0.19194 0,-0.38388c0,-0.09597 -0.0441,-0.19707 0,-0.38388c0.0493,-0.20886 0.09598,-0.28791 0.09598,-0.38388c0,-0.19194 0,-0.28791 0,-0.38388c0,-0.19194 0,-0.28791 0,-0.47984c0,-0.09597 0,-0.28791 0,-0.38388c0,-0.09597 0,-0.28791 0,-0.38388c0,-0.19194 0,-0.28791 0,-0.47984c0,-0.09597 0,-0.19194 0,-0.38388c0,-0.09597 0,-0.28791 0,-0.38388c0,-0.09597 0.03975,-0.15218 -0.09598,-0.28791c-0.13571,-0.13571 -0.19193,-0.09597 -0.19193,-0.28791c0,-0.09597 -0.09598,-0.28791 -0.09598,-0.38388c0,-0.28791 0,-0.38388 0,-0.57582c0,-0.09597 0.06786,-0.31602 0,-0.38388c-0.13573,-0.13572 -0.34412,0.13572 -0.47984,0c-0.06786,-0.06786 0.03975,-0.15219 -0.09598,-0.28791c-0.06786,-0.06786 -0.11058,-0.02251 -0.2879,-0.09597c-0.12538,-0.05194 -0.2879,-0.09597 -0.2879,-0.28791c0,-0.19194 -0.15219,-0.05622 -0.28792,-0.19194c-0.06786,-0.06786 -0.02811,-0.12408 -0.09596,-0.19194c-0.06786,-0.06786 -0.15218,-0.05621 -0.2879,-0.19194c-0.06786,-0.06786 -0.09598,-0.09597 -0.28792,-0.09597c-0.09596,0 -0.24815,0.03974 -0.38387,-0.09597c-0.13573,-0.13572 -0.15219,-0.05621 -0.28792,-0.19194c-0.13573,-0.13572 -0.02811,-0.22005 -0.09596,-0.28791c-0.13573,-0.13572 -0.28792,-0.09597 -0.38388,-0.09597c-0.19194,0 -0.2879,0 -0.47984,0c-0.09598,0 -0.31601,0.06787 -0.38388,0c-0.13573,-0.13572 -0.09596,-0.19194 -0.2879,-0.19194c-0.09598,0 -0.28792,0 -0.38388,0c-0.19194,0 -0.2879,0 -0.38388,0c-0.19194,0 -0.2879,0 -0.38388,0c-0.19193,0 -0.38387,0 -0.47984,0l-0.09596,0l0,0.09597l0,0.09597" id="svg_9" stroke="#000" fill="none"/>
 </g>
</svg>
